solid Default
  facet normal 6.087614e-01 7.933533e-01 -7.455178e-17
    outer loop
      vertex 5.875000e+01 -2.165064e+00 3.320000e+01
      vertex 5.823223e+01 -1.767767e+00 4.720000e+01
      vertex 5.875000e+01 -2.165064e+00 4.720000e+01
    endloop
  endfacet
  facet normal 6.087614e-01 7.933533e-01 -7.455178e-17
    outer loop
      vertex 5.823223e+01 -1.767767e+00 4.720000e+01
      vertex 5.875000e+01 -2.165064e+00 3.320000e+01
      vertex 5.823223e+01 -1.767767e+00 3.320000e+01
    endloop
  endfacet
  facet normal -7.933533e-01 6.087614e-01 9.715776e-17
    outer loop
      vertex 6.216506e+01 -1.250000e+00 4.720000e+01
      vertex 6.176777e+01 -1.767767e+00 3.320000e+01
      vertex 6.176777e+01 -1.767767e+00 4.720000e+01
    endloop
  endfacet
  facet normal -7.933533e-01 6.087614e-01 9.715776e-17
    outer loop
      vertex 6.176777e+01 -1.767767e+00 3.320000e+01
      vertex 6.216506e+01 -1.250000e+00 4.720000e+01
      vertex 6.216506e+01 -1.250000e+00 3.320000e+01
    endloop
  endfacet
  facet normal -9.238795e-01 3.826834e-01 1.131426e-16
    outer loop
      vertex 6.241481e+01 -6.470476e-01 4.720000e+01
      vertex 6.216506e+01 -1.250000e+00 3.320000e+01
      vertex 6.216506e+01 -1.250000e+00 4.720000e+01
    endloop
  endfacet
  facet normal -9.238795e-01 3.826834e-01 1.131426e-16
    outer loop
      vertex 6.216506e+01 -1.250000e+00 3.320000e+01
      vertex 6.241481e+01 -6.470476e-01 4.720000e+01
      vertex 6.241481e+01 -6.470476e-01 3.320000e+01
    endloop
  endfacet
  facet normal -9.914449e-01 1.305262e-01 1.214170e-16
    outer loop
      vertex 6.250000e+01 4.592425e-16 4.720000e+01
      vertex 6.241481e+01 -6.470476e-01 3.320000e+01
      vertex 6.241481e+01 -6.470476e-01 4.720000e+01
    endloop
  endfacet
  facet normal -9.914449e-01 1.305262e-01 1.214170e-16
    outer loop
      vertex 6.241481e+01 -6.470476e-01 3.320000e+01
      vertex 6.250000e+01 4.592425e-16 4.720000e+01
      vertex 6.250000e+01 4.592425e-16 3.320000e+01
    endloop
  endfacet
  facet normal -9.914449e-01 -1.305262e-01 1.214170e-16
    outer loop
      vertex 6.241481e+01 6.470476e-01 4.720000e+01
      vertex 6.250000e+01 4.592425e-16 3.320000e+01
      vertex 6.250000e+01 4.592425e-16 4.720000e+01
    endloop
  endfacet
  facet normal -9.914449e-01 -1.305262e-01 1.214170e-16
    outer loop
      vertex 6.250000e+01 4.592425e-16 3.320000e+01
      vertex 6.241481e+01 6.470476e-01 4.720000e+01
      vertex 6.241481e+01 6.470476e-01 3.320000e+01
    endloop
  endfacet
  facet normal -9.238795e-01 -3.826834e-01 1.131426e-16
    outer loop
      vertex 6.216506e+01 1.250000e+00 4.720000e+01
      vertex 6.241481e+01 6.470476e-01 3.320000e+01
      vertex 6.241481e+01 6.470476e-01 4.720000e+01
    endloop
  endfacet
  facet normal -9.238795e-01 -3.826834e-01 1.131426e-16
    outer loop
      vertex 6.241481e+01 6.470476e-01 3.320000e+01
      vertex 6.216506e+01 1.250000e+00 4.720000e+01
      vertex 6.216506e+01 1.250000e+00 3.320000e+01
    endloop
  endfacet
  facet normal -7.933533e-01 -6.087614e-01 9.715776e-17
    outer loop
      vertex 6.176777e+01 1.767767e+00 4.720000e+01
      vertex 6.216506e+01 1.250000e+00 3.320000e+01
      vertex 6.216506e+01 1.250000e+00 4.720000e+01
    endloop
  endfacet
  facet normal -7.933533e-01 -6.087614e-01 9.715776e-17
    outer loop
      vertex 6.216506e+01 1.250000e+00 3.320000e+01
      vertex 6.176777e+01 1.767767e+00 4.720000e+01
      vertex 6.176777e+01 1.767767e+00 3.320000e+01
    endloop
  endfacet
  facet normal -6.087614e-01 -7.933533e-01 7.455178e-17
    outer loop
      vertex 6.125000e+01 2.165064e+00 3.320000e+01
      vertex 6.176777e+01 1.767767e+00 4.720000e+01
      vertex 6.125000e+01 2.165064e+00 4.720000e+01
    endloop
  endfacet
  facet normal -6.087614e-01 -7.933533e-01 7.455178e-17
    outer loop
      vertex 6.176777e+01 1.767767e+00 4.720000e+01
      vertex 6.125000e+01 2.165064e+00 3.320000e+01
      vertex 6.176777e+01 1.767767e+00 3.320000e+01
    endloop
  endfacet
  facet normal -3.826834e-01 -9.238795e-01 4.686520e-17
    outer loop
      vertex 6.064705e+01 2.414814e+00 3.320000e+01
      vertex 6.125000e+01 2.165064e+00 4.720000e+01
      vertex 6.064705e+01 2.414814e+00 4.720000e+01
    endloop
  endfacet
  facet normal -3.826834e-01 -9.238795e-01 4.686520e-17
    outer loop
      vertex 6.125000e+01 2.165064e+00 4.720000e+01
      vertex 6.064705e+01 2.414814e+00 3.320000e+01
      vertex 6.125000e+01 2.165064e+00 3.320000e+01
    endloop
  endfacet
  facet normal -1.305262e-01 -9.914449e-01 1.598485e-17
    outer loop
      vertex 6.000000e+01 2.500000e+00 3.320000e+01
      vertex 6.064705e+01 2.414814e+00 4.720000e+01
      vertex 6.000000e+01 2.500000e+00 4.720000e+01
    endloop
  endfacet
  facet normal -1.305262e-01 -9.914449e-01 1.598485e-17
    outer loop
      vertex 6.064705e+01 2.414814e+00 4.720000e+01
      vertex 6.000000e+01 2.500000e+00 3.320000e+01
      vertex 6.064705e+01 2.414814e+00 3.320000e+01
    endloop
  endfacet
  facet normal 1.305262e-01 -9.914449e-01 -1.598485e-17
    outer loop
      vertex 5.935295e+01 2.414814e+00 3.320000e+01
      vertex 6.000000e+01 2.500000e+00 4.720000e+01
      vertex 5.935295e+01 2.414814e+00 4.720000e+01
    endloop
  endfacet
  facet normal 1.305262e-01 -9.914449e-01 -1.598485e-17
    outer loop
      vertex 6.000000e+01 2.500000e+00 4.720000e+01
      vertex 5.935295e+01 2.414814e+00 3.320000e+01
      vertex 6.000000e+01 2.500000e+00 3.320000e+01
    endloop
  endfacet
  facet normal 3.826834e-01 -9.238795e-01 -4.686520e-17
    outer loop
      vertex 5.875000e+01 2.165064e+00 3.320000e+01
      vertex 5.935295e+01 2.414814e+00 4.720000e+01
      vertex 5.875000e+01 2.165064e+00 4.720000e+01
    endloop
  endfacet
  facet normal 3.826834e-01 -9.238795e-01 -4.686520e-17
    outer loop
      vertex 5.935295e+01 2.414814e+00 4.720000e+01
      vertex 5.875000e+01 2.165064e+00 3.320000e+01
      vertex 5.935295e+01 2.414814e+00 3.320000e+01
    endloop
  endfacet
  facet normal 6.087614e-01 -7.933533e-01 -7.455178e-17
    outer loop
      vertex 5.823223e+01 1.767767e+00 3.320000e+01
      vertex 5.875000e+01 2.165064e+00 4.720000e+01
      vertex 5.823223e+01 1.767767e+00 4.720000e+01
    endloop
  endfacet
  facet normal 6.087614e-01 -7.933533e-01 -7.455178e-17
    outer loop
      vertex 5.875000e+01 2.165064e+00 4.720000e+01
      vertex 5.823223e+01 1.767767e+00 3.320000e+01
      vertex 5.875000e+01 2.165064e+00 3.320000e+01
    endloop
  endfacet
  facet normal 7.933533e-01 -6.087614e-01 -9.715776e-17
    outer loop
      vertex 5.823223e+01 1.767767e+00 3.320000e+01
      vertex 5.783494e+01 1.250000e+00 4.720000e+01
      vertex 5.783494e+01 1.250000e+00 3.320000e+01
    endloop
  endfacet
  facet normal 7.933533e-01 -6.087614e-01 -9.715776e-17
    outer loop
      vertex 5.783494e+01 1.250000e+00 4.720000e+01
      vertex 5.823223e+01 1.767767e+00 3.320000e+01
      vertex 5.823223e+01 1.767767e+00 4.720000e+01
    endloop
  endfacet
  facet normal 9.238795e-01 -3.826834e-01 -1.131426e-16
    outer loop
      vertex 5.783494e+01 1.250000e+00 3.320000e+01
      vertex 5.758519e+01 6.470476e-01 4.720000e+01
      vertex 5.758519e+01 6.470476e-01 3.320000e+01
    endloop
  endfacet
  facet normal 9.238795e-01 -3.826834e-01 -1.131426e-16
    outer loop
      vertex 5.758519e+01 6.470476e-01 4.720000e+01
      vertex 5.783494e+01 1.250000e+00 3.320000e+01
      vertex 5.783494e+01 1.250000e+00 4.720000e+01
    endloop
  endfacet
  facet normal 9.914449e-01 -1.305262e-01 -1.214170e-16
    outer loop
      vertex 5.758519e+01 6.470476e-01 3.320000e+01
      vertex 5.750000e+01 -1.530808e-16 4.720000e+01
      vertex 5.750000e+01 -1.530808e-16 3.320000e+01
    endloop
  endfacet
  facet normal 9.914449e-01 -1.305262e-01 -1.214170e-16
    outer loop
      vertex 5.750000e+01 -1.530808e-16 4.720000e+01
      vertex 5.758519e+01 6.470476e-01 3.320000e+01
      vertex 5.758519e+01 6.470476e-01 4.720000e+01
    endloop
  endfacet
  facet normal 9.914449e-01 1.305262e-01 -1.214170e-16
    outer loop
      vertex 5.750000e+01 -1.530808e-16 3.320000e+01
      vertex 5.758519e+01 -6.470476e-01 4.720000e+01
      vertex 5.758519e+01 -6.470476e-01 3.320000e+01
    endloop
  endfacet
  facet normal 9.914449e-01 1.305262e-01 -1.214170e-16
    outer loop
      vertex 5.758519e+01 -6.470476e-01 4.720000e+01
      vertex 5.750000e+01 -1.530808e-16 3.320000e+01
      vertex 5.750000e+01 -1.530808e-16 4.720000e+01
    endloop
  endfacet
  facet normal 9.238795e-01 3.826834e-01 -1.131426e-16
    outer loop
      vertex 5.758519e+01 -6.470476e-01 3.320000e+01
      vertex 5.783494e+01 -1.250000e+00 4.720000e+01
      vertex 5.783494e+01 -1.250000e+00 3.320000e+01
    endloop
  endfacet
  facet normal 9.238795e-01 3.826834e-01 -1.131426e-16
    outer loop
      vertex 5.783494e+01 -1.250000e+00 4.720000e+01
      vertex 5.758519e+01 -6.470476e-01 3.320000e+01
      vertex 5.758519e+01 -6.470476e-01 4.720000e+01
    endloop
  endfacet
  facet normal 7.933533e-01 6.087614e-01 -9.715776e-17
    outer loop
      vertex 5.783494e+01 -1.250000e+00 3.320000e+01
      vertex 5.823223e+01 -1.767767e+00 4.720000e+01
      vertex 5.823223e+01 -1.767767e+00 3.320000e+01
    endloop
  endfacet
  facet normal 7.933533e-01 6.087614e-01 -9.715776e-17
    outer loop
      vertex 5.823223e+01 -1.767767e+00 4.720000e+01
      vertex 5.783494e+01 -1.250000e+00 3.320000e+01
      vertex 5.783494e+01 -1.250000e+00 4.720000e+01
    endloop
  endfacet
  facet normal 1.224647e-16 0.000000e+00 1.000000e+00
    outer loop
      vertex 1.034667e+02 1.164686e+01 2.760000e+01
      vertex 1.034667e+02 -1.164686e+01 2.760000e+01
      vertex 1.050000e+02 -2.728736e-13 2.760000e+01
    endloop
  endfacet
  facet normal 1.224647e-16 0.000000e+00 1.000000e+00
    outer loop
      vertex 1.034667e+02 -1.164686e+01 2.760000e+01
      vertex 1.034667e+02 1.164686e+01 2.760000e+01
      vertex 9.897114e+01 2.250000e+01 2.760000e+01
    endloop
  endfacet
  facet normal 1.224647e-16 0.000000e+00 1.000000e+00
    outer loop
      vertex 1.034667e+02 -1.164686e+01 2.760000e+01
      vertex 9.897114e+01 2.250000e+01 2.760000e+01
      vertex 9.897114e+01 -2.250000e+01 2.760000e+01
    endloop
  endfacet
  facet normal 1.224647e-16 0.000000e+00 1.000000e+00
    outer loop
      vertex 9.897114e+01 -2.250000e+01 2.760000e+01
      vertex 9.897114e+01 2.250000e+01 2.760000e+01
      vertex 9.181981e+01 3.181981e+01 2.760000e+01
    endloop
  endfacet
  facet normal 1.224647e-16 0.000000e+00 1.000000e+00
    outer loop
      vertex 9.897114e+01 -2.250000e+01 2.760000e+01
      vertex 9.181981e+01 3.181981e+01 2.760000e+01
      vertex 9.181981e+01 -3.181981e+01 2.760000e+01
    endloop
  endfacet
  facet normal 1.224647e-16 0.000000e+00 1.000000e+00
    outer loop
      vertex 9.181981e+01 -3.181981e+01 2.760000e+01
      vertex 9.181981e+01 3.181981e+01 2.760000e+01
      vertex 8.250000e+01 3.897114e+01 2.760000e+01
    endloop
  endfacet
  facet normal 1.224647e-16 0.000000e+00 1.000000e+00
    outer loop
      vertex 9.181981e+01 -3.181981e+01 2.760000e+01
      vertex 8.250000e+01 3.897114e+01 2.760000e+01
      vertex 8.250000e+01 -3.897114e+01 2.760000e+01
    endloop
  endfacet
  facet normal 1.224647e-16 0.000000e+00 1.000000e+00
    outer loop
      vertex 8.250000e+01 -3.897114e+01 2.760000e+01
      vertex 8.250000e+01 3.897114e+01 2.760000e+01
      vertex 7.164686e+01 4.346666e+01 2.760000e+01
    endloop
  endfacet
  facet normal 1.224647e-16 0.000000e+00 1.000000e+00
    outer loop
      vertex 8.250000e+01 -3.897114e+01 2.760000e+01
      vertex 7.164686e+01 4.346666e+01 2.760000e+01
      vertex 7.600000e+01 6.979417e-14 2.760000e+01
    endloop
  endfacet
  facet normal 1.224647e-16 0.000000e+00 1.000000e+00
    outer loop
      vertex 7.600000e+01 6.979417e-14 2.760000e+01
      vertex 7.164686e+01 4.346666e+01 2.760000e+01
      vertex 7.545481e+01 4.141105e+00 2.760000e+01
    endloop
  endfacet
  facet normal 1.224647e-16 0.000000e+00 1.000000e+00
    outer loop
      vertex 7.545481e+01 4.141105e+00 2.760000e+01
      vertex 7.164686e+01 4.346666e+01 2.760000e+01
      vertex 7.385641e+01 8.000000e+00 2.760000e+01
    endloop
  endfacet
  facet normal 1.224647e-16 0.000000e+00 1.000000e+00
    outer loop
      vertex 7.385641e+01 8.000000e+00 2.760000e+01
      vertex 7.164686e+01 4.346666e+01 2.760000e+01
      vertex 7.131371e+01 1.131371e+01 2.760000e+01
    endloop
  endfacet
  facet normal 1.224647e-16 0.000000e+00 1.000000e+00
    outer loop
      vertex 7.131371e+01 1.131371e+01 2.760000e+01
      vertex 7.164686e+01 4.346666e+01 2.760000e+01
      vertex 6.000000e+01 4.500000e+01 2.760000e+01
    endloop
  endfacet
  facet normal 1.224647e-16 0.000000e+00 1.000000e+00
    outer loop
      vertex 7.131371e+01 1.131371e+01 2.760000e+01
      vertex 6.000000e+01 4.500000e+01 2.760000e+01
      vertex 6.800000e+01 1.385641e+01 2.760000e+01
    endloop
  endfacet
  facet normal 1.224647e-16 0.000000e+00 1.000000e+00
    outer loop
      vertex 6.800000e+01 1.385641e+01 2.760000e+01
      vertex 6.000000e+01 4.500000e+01 2.760000e+01
      vertex 6.414111e+01 1.545481e+01 2.760000e+01
    endloop
  endfacet
  facet normal 1.224647e-16 0.000000e+00 1.000000e+00
    outer loop
      vertex 6.414111e+01 1.545481e+01 2.760000e+01
      vertex 6.000000e+01 4.500000e+01 2.760000e+01
      vertex 6.000000e+01 1.600000e+01 2.760000e+01
    endloop
  endfacet
  facet normal 1.224647e-16 0.000000e+00 1.000000e+00
    outer loop
      vertex 6.000000e+01 1.600000e+01 2.760000e+01
      vertex 6.000000e+01 4.500000e+01 2.760000e+01
      vertex 4.835314e+01 4.346666e+01 2.760000e+01
    endloop
  endfacet
  facet normal 1.224647e-16 0.000000e+00 1.000000e+00
    outer loop
      vertex 6.000000e+01 1.600000e+01 2.760000e+01
      vertex 4.835314e+01 4.346666e+01 2.760000e+01
      vertex 5.585889e+01 1.545481e+01 2.760000e+01
    endloop
  endfacet
  facet normal 1.224647e-16 0.000000e+00 1.000000e+00
    outer loop
      vertex 5.585889e+01 1.545481e+01 2.760000e+01
      vertex 4.835314e+01 4.346666e+01 2.760000e+01
      vertex 5.200000e+01 1.385641e+01 2.760000e+01
    endloop
  endfacet
  facet normal 1.224647e-16 0.000000e+00 1.000000e+00
    outer loop
      vertex 5.200000e+01 1.385641e+01 2.760000e+01
      vertex 4.835314e+01 4.346666e+01 2.760000e+01
      vertex 4.868629e+01 1.131371e+01 2.760000e+01
    endloop
  endfacet
  facet normal 1.224647e-16 0.000000e+00 1.000000e+00
    outer loop
      vertex 4.868629e+01 1.131371e+01 2.760000e+01
      vertex 4.835314e+01 4.346666e+01 2.760000e+01
      vertex 4.614359e+01 8.000000e+00 2.760000e+01
    endloop
  endfacet
  facet normal 1.224647e-16 0.000000e+00 1.000000e+00
    outer loop
      vertex 4.614359e+01 8.000000e+00 2.760000e+01
      vertex 4.835314e+01 4.346666e+01 2.760000e+01
      vertex 3.750000e+01 3.897114e+01 2.760000e+01
    endloop
  endfacet
  facet normal 1.224647e-16 0.000000e+00 1.000000e+00
    outer loop
      vertex 4.614359e+01 8.000000e+00 2.760000e+01
      vertex 3.750000e+01 3.897114e+01 2.760000e+01
      vertex 4.454519e+01 4.141105e+00 2.760000e+01
    endloop
  endfacet
  facet normal 1.224647e-16 0.000000e+00 1.000000e+00
    outer loop
      vertex 4.454519e+01 4.141105e+00 2.760000e+01
      vertex 3.750000e+01 3.897114e+01 2.760000e+01
      vertex 4.400000e+01 -7.684409e-14 2.760000e+01
    endloop
  endfacet
  facet normal 1.224647e-16 0.000000e+00 1.000000e+00
    outer loop
      vertex 7.600000e+01 6.979417e-14 2.760000e+01
      vertex 7.164686e+01 -4.346666e+01 2.760000e+01
      vertex 8.250000e+01 -3.897114e+01 2.760000e+01
    endloop
  endfacet
  facet normal 1.224647e-16 0.000000e+00 1.000000e+00
    outer loop
      vertex 7.164686e+01 -4.346666e+01 2.760000e+01
      vertex 7.600000e+01 6.979417e-14 2.760000e+01
      vertex 7.545481e+01 -4.141105e+00 2.760000e+01
    endloop
  endfacet
  facet normal 1.224647e-16 0.000000e+00 1.000000e+00
    outer loop
      vertex 7.164686e+01 -4.346666e+01 2.760000e+01
      vertex 7.545481e+01 -4.141105e+00 2.760000e+01
      vertex 7.385641e+01 -8.000000e+00 2.760000e+01
    endloop
  endfacet
  facet normal 1.224647e-16 0.000000e+00 1.000000e+00
    outer loop
      vertex 7.164686e+01 -4.346666e+01 2.760000e+01
      vertex 7.385641e+01 -8.000000e+00 2.760000e+01
      vertex 7.131371e+01 -1.131371e+01 2.760000e+01
    endloop
  endfacet
  facet normal 1.224647e-16 0.000000e+00 1.000000e+00
    outer loop
      vertex 7.164686e+01 -4.346666e+01 2.760000e+01
      vertex 7.131371e+01 -1.131371e+01 2.760000e+01
      vertex 6.000000e+01 -4.500000e+01 2.760000e+01
    endloop
  endfacet
  facet normal 1.224647e-16 0.000000e+00 1.000000e+00
    outer loop
      vertex 6.000000e+01 -4.500000e+01 2.760000e+01
      vertex 7.131371e+01 -1.131371e+01 2.760000e+01
      vertex 6.800000e+01 -1.385641e+01 2.760000e+01
    endloop
  endfacet
  facet normal 1.224647e-16 0.000000e+00 1.000000e+00
    outer loop
      vertex 6.000000e+01 -4.500000e+01 2.760000e+01
      vertex 6.800000e+01 -1.385641e+01 2.760000e+01
      vertex 6.414111e+01 -1.545481e+01 2.760000e+01
    endloop
  endfacet
  facet normal 1.224647e-16 0.000000e+00 1.000000e+00
    outer loop
      vertex 6.000000e+01 -4.500000e+01 2.760000e+01
      vertex 6.414111e+01 -1.545481e+01 2.760000e+01
      vertex 6.000000e+01 -1.600000e+01 2.760000e+01
    endloop
  endfacet
  facet normal 1.224647e-16 0.000000e+00 1.000000e+00
    outer loop
      vertex 6.000000e+01 -4.500000e+01 2.760000e+01
      vertex 6.000000e+01 -1.600000e+01 2.760000e+01
      vertex 5.585889e+01 -1.545481e+01 2.760000e+01
    endloop
  endfacet
  facet normal 1.224647e-16 0.000000e+00 1.000000e+00
    outer loop
      vertex 6.000000e+01 -4.500000e+01 2.760000e+01
      vertex 5.585889e+01 -1.545481e+01 2.760000e+01
      vertex 4.835314e+01 -4.346666e+01 2.760000e+01
    endloop
  endfacet
  facet normal 1.224647e-16 0.000000e+00 1.000000e+00
    outer loop
      vertex 4.835314e+01 -4.346666e+01 2.760000e+01
      vertex 5.585889e+01 -1.545481e+01 2.760000e+01
      vertex 5.200000e+01 -1.385641e+01 2.760000e+01
    endloop
  endfacet
  facet normal 1.224647e-16 0.000000e+00 1.000000e+00
    outer loop
      vertex 4.835314e+01 -4.346666e+01 2.760000e+01
      vertex 5.200000e+01 -1.385641e+01 2.760000e+01
      vertex 4.868629e+01 -1.131371e+01 2.760000e+01
    endloop
  endfacet
  facet normal 1.224647e-16 0.000000e+00 1.000000e+00
    outer loop
      vertex 4.835314e+01 -4.346666e+01 2.760000e+01
      vertex 4.868629e+01 -1.131371e+01 2.760000e+01
      vertex 4.614359e+01 -8.000000e+00 2.760000e+01
    endloop
  endfacet
  facet normal 1.224647e-16 0.000000e+00 1.000000e+00
    outer loop
      vertex 4.835314e+01 -4.346666e+01 2.760000e+01
      vertex 4.614359e+01 -8.000000e+00 2.760000e+01
      vertex 3.750000e+01 -3.897114e+01 2.760000e+01
    endloop
  endfacet
  facet normal 1.224647e-16 0.000000e+00 1.000000e+00
    outer loop
      vertex 3.750000e+01 -3.897114e+01 2.760000e+01
      vertex 4.614359e+01 -8.000000e+00 2.760000e+01
      vertex 4.454519e+01 -4.141105e+00 2.760000e+01
    endloop
  endfacet
  facet normal 1.224647e-16 0.000000e+00 1.000000e+00
    outer loop
      vertex 3.750000e+01 -3.897114e+01 2.760000e+01
      vertex 4.454519e+01 -4.141105e+00 2.760000e+01
      vertex 4.400000e+01 -7.684409e-14 2.760000e+01
    endloop
  endfacet
  facet normal 1.224647e-16 0.000000e+00 1.000000e+00
    outer loop
      vertex 3.750000e+01 -3.897114e+01 2.760000e+01
      vertex 4.400000e+01 -7.684409e-14 2.760000e+01
      vertex 3.750000e+01 3.897114e+01 2.760000e+01
    endloop
  endfacet
  facet normal 1.224647e-16 0.000000e+00 1.000000e+00
    outer loop
      vertex 3.750000e+01 -3.897114e+01 2.760000e+01
      vertex 3.750000e+01 3.897114e+01 2.760000e+01
      vertex 2.818019e+01 3.181981e+01 2.760000e+01
    endloop
  endfacet
  facet normal 1.224647e-16 0.000000e+00 1.000000e+00
    outer loop
      vertex 3.750000e+01 -3.897114e+01 2.760000e+01
      vertex 2.818019e+01 3.181981e+01 2.760000e+01
      vertex 2.818019e+01 -3.181981e+01 2.760000e+01
    endloop
  endfacet
  facet normal 1.224647e-16 0.000000e+00 1.000000e+00
    outer loop
      vertex 2.818019e+01 -3.181981e+01 2.760000e+01
      vertex 2.818019e+01 3.181981e+01 2.760000e+01
      vertex 2.102886e+01 2.250000e+01 2.760000e+01
    endloop
  endfacet
  facet normal 1.224647e-16 0.000000e+00 1.000000e+00
    outer loop
      vertex 2.818019e+01 -3.181981e+01 2.760000e+01
      vertex 2.102886e+01 2.250000e+01 2.760000e+01
      vertex 2.102886e+01 -2.250000e+01 2.760000e+01
    endloop
  endfacet
  facet normal 1.224647e-16 0.000000e+00 1.000000e+00
    outer loop
      vertex 2.102886e+01 -2.250000e+01 2.760000e+01
      vertex 2.102886e+01 2.250000e+01 2.760000e+01
      vertex 1.653334e+01 1.164686e+01 2.760000e+01
    endloop
  endfacet
  facet normal 1.224647e-16 0.000000e+00 1.000000e+00
    outer loop
      vertex 2.102886e+01 -2.250000e+01 2.760000e+01
      vertex 1.653334e+01 1.164686e+01 2.760000e+01
      vertex 1.653334e+01 -1.164686e+01 2.760000e+01
    endloop
  endfacet
  facet normal 1.224647e-16 0.000000e+00 1.000000e+00
    outer loop
      vertex 1.653334e+01 -1.164686e+01 2.760000e+01
      vertex 1.653334e+01 1.164686e+01 2.760000e+01
      vertex 1.500000e+01 1.674427e-13 2.760000e+01
    endloop
  endfacet
  facet normal -1.224647e-16 0.000000e+00 -1.000000e+00
    outer loop
      vertex 7.164686e+01 -4.346666e+01 7.105427e-15
      vertex 6.693936e+01 -9.193570e-01 7.105427e-15
      vertex 6.696996e+01 6.478471e-01 7.105427e-15
    endloop
  endfacet
  facet normal -1.224647e-16 0.000000e+00 -1.000000e+00
    outer loop
      vertex 6.693936e+01 -9.193570e-01 7.105427e-15
      vertex 7.164686e+01 -4.346666e+01 7.105427e-15
      vertex 6.000000e+01 -4.500000e+01 7.105427e-15
    endloop
  endfacet
  facet normal -1.224647e-16 0.000000e+00 -1.000000e+00
    outer loop
      vertex 6.693936e+01 -9.193570e-01 7.105427e-15
      vertex 6.000000e+01 -4.500000e+01 7.105427e-15
      vertex 6.656080e+01 -2.440461e+00 7.105427e-15
    endloop
  endfacet
  facet normal -1.224647e-16 0.000000e+00 -1.000000e+00
    outer loop
      vertex 6.656080e+01 -2.440461e+00 7.105427e-15
      vertex 6.000000e+01 -4.500000e+01 7.105427e-15
      vertex 6.585326e+01 -3.839190e+00 7.105427e-15
    endloop
  endfacet
  facet normal -1.224647e-16 0.000000e+00 -1.000000e+00
    outer loop
      vertex 6.585326e+01 -3.839190e+00 7.105427e-15
      vertex 6.000000e+01 -4.500000e+01 7.105427e-15
      vertex 6.485220e+01 -5.045405e+00 7.105427e-15
    endloop
  endfacet
  facet normal -1.224647e-16 0.000000e+00 -1.000000e+00
    outer loop
      vertex 6.485220e+01 -5.045405e+00 7.105427e-15
      vertex 6.000000e+01 -4.500000e+01 7.105427e-15
      vertex 6.360784e+01 -5.998623e+00 7.105427e-15
    endloop
  endfacet
  facet normal -1.224647e-16 0.000000e+00 -1.000000e+00
    outer loop
      vertex 6.360784e+01 -5.998623e+00 7.105427e-15
      vertex 6.000000e+01 -4.500000e+01 7.105427e-15
      vertex 6.218256e+01 -6.651046e+00 7.105427e-15
    endloop
  endfacet
  facet normal -1.224647e-16 0.000000e+00 -1.000000e+00
    outer loop
      vertex 6.218256e+01 -6.651046e+00 7.105427e-15
      vertex 6.000000e+01 -4.500000e+01 7.105427e-15
      vertex 6.064785e+01 -6.969956e+00 7.105427e-15
    endloop
  endfacet
  facet normal -1.224647e-16 0.000000e+00 -1.000000e+00
    outer loop
      vertex 6.064785e+01 -6.969956e+00 7.105427e-15
      vertex 6.000000e+01 -4.500000e+01 7.105427e-15
      vertex 5.908064e+01 -6.939365e+00 7.105427e-15
    endloop
  endfacet
  facet normal -1.224647e-16 0.000000e+00 -1.000000e+00
    outer loop
      vertex 5.908064e+01 -6.939365e+00 7.105427e-15
      vertex 6.000000e+01 -4.500000e+01 7.105427e-15
      vertex 4.835314e+01 -4.346666e+01 7.105427e-15
    endloop
  endfacet
  facet normal -1.224647e-16 0.000000e+00 -1.000000e+00
    outer loop
      vertex 5.908064e+01 -6.939365e+00 7.105427e-15
      vertex 4.835314e+01 -4.346666e+01 7.105427e-15
      vertex 5.755954e+01 -6.560804e+00 7.105427e-15
    endloop
  endfacet
  facet normal -1.224647e-16 0.000000e+00 -1.000000e+00
    outer loop
      vertex 5.755954e+01 -6.560804e+00 7.105427e-15
      vertex 4.835314e+01 -4.346666e+01 7.105427e-15
      vertex 5.616081e+01 -5.853258e+00 7.105427e-15
    endloop
  endfacet
  facet normal -1.224647e-16 0.000000e+00 -1.000000e+00
    outer loop
      vertex 5.616081e+01 -5.853258e+00 7.105427e-15
      vertex 4.835314e+01 -4.346666e+01 7.105427e-15
      vertex 5.495460e+01 -4.852204e+00 7.105427e-15
    endloop
  endfacet
  facet normal -1.224647e-16 0.000000e+00 -1.000000e+00
    outer loop
      vertex 5.495460e+01 -4.852204e+00 7.105427e-15
      vertex 4.835314e+01 -4.346666e+01 7.105427e-15
      vertex 5.400138e+01 -3.607841e+00 7.105427e-15
    endloop
  endfacet
  facet normal -1.224647e-16 0.000000e+00 -1.000000e+00
    outer loop
      vertex 5.400138e+01 -3.607841e+00 7.105427e-15
      vertex 4.835314e+01 -4.346666e+01 7.105427e-15
      vertex 5.334895e+01 -2.182565e+00 7.105427e-15
    endloop
  endfacet
  facet normal -1.224647e-16 0.000000e+00 -1.000000e+00
    outer loop
      vertex 5.334895e+01 -2.182565e+00 7.105427e-15
      vertex 4.835314e+01 -4.346666e+01 7.105427e-15
      vertex 5.303004e+01 -6.478471e-01 7.105427e-15
    endloop
  endfacet
  facet normal -1.224647e-16 0.000000e+00 -1.000000e+00
    outer loop
      vertex 5.303004e+01 -6.478471e-01 7.105427e-15
      vertex 4.835314e+01 -4.346666e+01 7.105427e-15
      vertex 4.835314e+01 4.346666e+01 7.105427e-15
    endloop
  endfacet
  facet normal -1.224647e-16 0.000000e+00 -1.000000e+00
    outer loop
      vertex 4.835314e+01 4.346666e+01 7.105427e-15
      vertex 4.835314e+01 -4.346666e+01 7.105427e-15
      vertex 3.750000e+01 3.897114e+01 7.105427e-15
    endloop
  endfacet
  facet normal -1.224647e-16 0.000000e+00 -1.000000e+00
    outer loop
      vertex 3.750000e+01 3.897114e+01 7.105427e-15
      vertex 4.835314e+01 -4.346666e+01 7.105427e-15
      vertex 3.750000e+01 -3.897114e+01 7.105427e-15
    endloop
  endfacet
  facet normal -1.224647e-16 0.000000e+00 -1.000000e+00
    outer loop
      vertex 3.750000e+01 3.897114e+01 7.105427e-15
      vertex 3.750000e+01 -3.897114e+01 7.105427e-15
      vertex 2.818019e+01 3.181981e+01 1.421085e-14
    endloop
  endfacet
  facet normal -1.224647e-16 0.000000e+00 -1.000000e+00
    outer loop
      vertex 2.818019e+01 3.181981e+01 1.421085e-14
      vertex 3.750000e+01 -3.897114e+01 7.105427e-15
      vertex 2.818019e+01 -3.181981e+01 1.421085e-14
    endloop
  endfacet
  facet normal -1.224647e-16 0.000000e+00 -1.000000e+00
    outer loop
      vertex 2.818019e+01 3.181981e+01 1.421085e-14
      vertex 2.818019e+01 -3.181981e+01 1.421085e-14
      vertex 2.102886e+01 2.250000e+01 1.421085e-14
    endloop
  endfacet
  facet normal -1.224647e-16 0.000000e+00 -1.000000e+00
    outer loop
      vertex 2.102886e+01 2.250000e+01 1.421085e-14
      vertex 2.818019e+01 -3.181981e+01 1.421085e-14
      vertex 2.102886e+01 -2.250000e+01 1.421085e-14
    endloop
  endfacet
  facet normal -1.224647e-16 0.000000e+00 -1.000000e+00
    outer loop
      vertex 2.102886e+01 2.250000e+01 1.421085e-14
      vertex 2.102886e+01 -2.250000e+01 1.421085e-14
      vertex 1.653334e+01 1.164686e+01 1.421085e-14
    endloop
  endfacet
  facet normal -1.224647e-16 0.000000e+00 -1.000000e+00
    outer loop
      vertex 1.653334e+01 1.164686e+01 1.421085e-14
      vertex 2.102886e+01 -2.250000e+01 1.421085e-14
      vertex 1.653334e+01 -1.164686e+01 1.421085e-14
    endloop
  endfacet
  facet normal -1.224647e-16 0.000000e+00 -1.000000e+00
    outer loop
      vertex 1.653334e+01 1.164686e+01 1.421085e-14
      vertex 1.653334e+01 -1.164686e+01 1.421085e-14
      vertex 1.500000e+01 1.827568e-13 1.421085e-14
    endloop
  endfacet
  facet normal -1.224647e-16 0.000000e+00 -1.000000e+00
    outer loop
      vertex 1.034667e+02 -1.164686e+01 0.000000e+00
      vertex 1.034667e+02 1.164686e+01 0.000000e+00
      vertex 1.050000e+02 -7.732581e-14 0.000000e+00
    endloop
  endfacet
  facet normal -1.224647e-16 0.000000e+00 -1.000000e+00
    outer loop
      vertex 1.034667e+02 1.164686e+01 0.000000e+00
      vertex 1.034667e+02 -1.164686e+01 0.000000e+00
      vertex 9.897114e+01 2.250000e+01 0.000000e+00
    endloop
  endfacet
  facet normal -1.224647e-16 0.000000e+00 -1.000000e+00
    outer loop
      vertex 9.897114e+01 2.250000e+01 0.000000e+00
      vertex 1.034667e+02 -1.164686e+01 0.000000e+00
      vertex 9.897114e+01 -2.250000e+01 0.000000e+00
    endloop
  endfacet
  facet normal -1.224647e-16 0.000000e+00 -1.000000e+00
    outer loop
      vertex 9.897114e+01 2.250000e+01 0.000000e+00
      vertex 9.897114e+01 -2.250000e+01 0.000000e+00
      vertex 9.181981e+01 3.181981e+01 0.000000e+00
    endloop
  endfacet
  facet normal -1.224647e-16 0.000000e+00 -1.000000e+00
    outer loop
      vertex 9.181981e+01 3.181981e+01 0.000000e+00
      vertex 9.897114e+01 -2.250000e+01 0.000000e+00
      vertex 9.181981e+01 -3.181981e+01 0.000000e+00
    endloop
  endfacet
  facet normal -1.224647e-16 0.000000e+00 -1.000000e+00
    outer loop
      vertex 9.181981e+01 3.181981e+01 0.000000e+00
      vertex 9.181981e+01 -3.181981e+01 0.000000e+00
      vertex 8.250000e+01 3.897114e+01 7.105427e-15
    endloop
  endfacet
  facet normal -1.224647e-16 0.000000e+00 -1.000000e+00
    outer loop
      vertex 8.250000e+01 3.897114e+01 7.105427e-15
      vertex 9.181981e+01 -3.181981e+01 0.000000e+00
      vertex 8.250000e+01 -3.897114e+01 7.105427e-15
    endloop
  endfacet
  facet normal -1.224647e-16 0.000000e+00 -1.000000e+00
    outer loop
      vertex 8.250000e+01 3.897114e+01 7.105427e-15
      vertex 8.250000e+01 -3.897114e+01 7.105427e-15
      vertex 7.164686e+01 4.346666e+01 7.105427e-15
    endloop
  endfacet
  facet normal -1.224647e-16 0.000000e+00 -1.000000e+00
    outer loop
      vertex 7.164686e+01 4.346666e+01 7.105427e-15
      vertex 8.250000e+01 -3.897114e+01 7.105427e-15
      vertex 7.164686e+01 -4.346666e+01 7.105427e-15
    endloop
  endfacet
  facet normal -1.224647e-16 0.000000e+00 -1.000000e+00
    outer loop
      vertex 7.164686e+01 4.346666e+01 7.105427e-15
      vertex 7.164686e+01 -4.346666e+01 7.105427e-15
      vertex 6.696996e+01 6.478471e-01 7.105427e-15
    endloop
  endfacet
  facet normal -1.224647e-16 0.000000e+00 -1.000000e+00
    outer loop
      vertex 7.164686e+01 4.346666e+01 7.105427e-15
      vertex 6.696996e+01 6.478471e-01 7.105427e-15
      vertex 6.000000e+01 4.500000e+01 7.105427e-15
    endloop
  endfacet
  facet normal -1.224647e-16 0.000000e+00 -1.000000e+00
    outer loop
      vertex 6.000000e+01 4.500000e+01 7.105427e-15
      vertex 6.696996e+01 6.478471e-01 7.105427e-15
      vertex 6.665105e+01 2.182565e+00 7.105427e-15
    endloop
  endfacet
  facet normal -1.224647e-16 0.000000e+00 -1.000000e+00
    outer loop
      vertex 6.000000e+01 4.500000e+01 7.105427e-15
      vertex 6.665105e+01 2.182565e+00 7.105427e-15
      vertex 6.599862e+01 3.607841e+00 7.105427e-15
    endloop
  endfacet
  facet normal -1.224647e-16 0.000000e+00 -1.000000e+00
    outer loop
      vertex 6.000000e+01 4.500000e+01 7.105427e-15
      vertex 6.599862e+01 3.607841e+00 7.105427e-15
      vertex 6.504540e+01 4.852204e+00 7.105427e-15
    endloop
  endfacet
  facet normal -1.224647e-16 0.000000e+00 -1.000000e+00
    outer loop
      vertex 6.000000e+01 4.500000e+01 7.105427e-15
      vertex 6.504540e+01 4.852204e+00 7.105427e-15
      vertex 6.383919e+01 5.853258e+00 7.105427e-15
    endloop
  endfacet
  facet normal -1.224647e-16 0.000000e+00 -1.000000e+00
    outer loop
      vertex 6.000000e+01 4.500000e+01 7.105427e-15
      vertex 6.383919e+01 5.853258e+00 7.105427e-15
      vertex 6.244046e+01 6.560804e+00 7.105427e-15
    endloop
  endfacet
  facet normal -1.224647e-16 0.000000e+00 -1.000000e+00
    outer loop
      vertex 6.000000e+01 4.500000e+01 7.105427e-15
      vertex 6.244046e+01 6.560804e+00 7.105427e-15
      vertex 6.091936e+01 6.939365e+00 7.105427e-15
    endloop
  endfacet
  facet normal -1.224647e-16 0.000000e+00 -1.000000e+00
    outer loop
      vertex 6.000000e+01 4.500000e+01 7.105427e-15
      vertex 6.091936e+01 6.939365e+00 7.105427e-15
      vertex 5.935215e+01 6.969956e+00 7.105427e-15
    endloop
  endfacet
  facet normal -1.224647e-16 0.000000e+00 -1.000000e+00
    outer loop
      vertex 6.000000e+01 4.500000e+01 7.105427e-15
      vertex 5.935215e+01 6.969956e+00 7.105427e-15
      vertex 4.835314e+01 4.346666e+01 7.105427e-15
    endloop
  endfacet
  facet normal -1.224647e-16 0.000000e+00 -1.000000e+00
    outer loop
      vertex 4.835314e+01 4.346666e+01 7.105427e-15
      vertex 5.935215e+01 6.969956e+00 7.105427e-15
      vertex 5.781744e+01 6.651046e+00 7.105427e-15
    endloop
  endfacet
  facet normal -1.224647e-16 0.000000e+00 -1.000000e+00
    outer loop
      vertex 4.835314e+01 4.346666e+01 7.105427e-15
      vertex 5.781744e+01 6.651046e+00 7.105427e-15
      vertex 5.639216e+01 5.998623e+00 7.105427e-15
    endloop
  endfacet
  facet normal -1.224647e-16 0.000000e+00 -1.000000e+00
    outer loop
      vertex 4.835314e+01 4.346666e+01 7.105427e-15
      vertex 5.639216e+01 5.998623e+00 7.105427e-15
      vertex 5.514780e+01 5.045405e+00 7.105427e-15
    endloop
  endfacet
  facet normal -1.224647e-16 0.000000e+00 -1.000000e+00
    outer loop
      vertex 4.835314e+01 4.346666e+01 7.105427e-15
      vertex 5.514780e+01 5.045405e+00 7.105427e-15
      vertex 5.414674e+01 3.839190e+00 7.105427e-15
    endloop
  endfacet
  facet normal -1.224647e-16 0.000000e+00 -1.000000e+00
    outer loop
      vertex 4.835314e+01 4.346666e+01 7.105427e-15
      vertex 5.414674e+01 3.839190e+00 7.105427e-15
      vertex 5.343920e+01 2.440461e+00 7.105427e-15
    endloop
  endfacet
  facet normal -1.224647e-16 0.000000e+00 -1.000000e+00
    outer loop
      vertex 4.835314e+01 4.346666e+01 7.105427e-15
      vertex 5.343920e+01 2.440461e+00 7.105427e-15
      vertex 5.306064e+01 9.193570e-01 7.105427e-15
    endloop
  endfacet
  facet normal -1.224647e-16 0.000000e+00 -1.000000e+00
    outer loop
      vertex 4.835314e+01 4.346666e+01 7.105427e-15
      vertex 5.306064e+01 9.193570e-01 7.105427e-15
      vertex 5.303004e+01 -6.478471e-01 7.105427e-15
    endloop
  endfacet
  facet normal 9.238795e-01 -3.826834e-01 -6.437324e-17
    outer loop
      vertex 9.897114e+01 -2.250000e+01 0.000000e+00
      vertex 1.034667e+02 -1.164686e+01 2.760000e+01
      vertex 9.897114e+01 -2.250000e+01 2.760000e+01
    endloop
  endfacet
  facet normal 9.238795e-01 -3.826834e-01 -6.437324e-17
    outer loop
      vertex 1.034667e+02 -1.164686e+01 2.760000e+01
      vertex 9.897114e+01 -2.250000e+01 0.000000e+00
      vertex 1.034667e+02 -1.164686e+01 0.000000e+00
    endloop
  endfacet
  facet normal 9.914449e-01 -1.305262e-01 -1.767922e-16
    outer loop
      vertex 1.034667e+02 -1.164686e+01 0.000000e+00
      vertex 1.050000e+02 -2.728736e-13 2.760000e+01
      vertex 1.034667e+02 -1.164686e+01 2.760000e+01
    endloop
  endfacet
  facet normal 9.914449e-01 -1.305262e-01 -1.767922e-16
    outer loop
      vertex 1.050000e+02 -2.728736e-13 2.760000e+01
      vertex 1.034667e+02 -1.164686e+01 0.000000e+00
      vertex 1.050000e+02 -7.732581e-14 0.000000e+00
    endloop
  endfacet
  facet normal 9.914449e-01 1.305262e-01 8.658997e-17
    outer loop
      vertex 1.050000e+02 -7.732581e-14 0.000000e+00
      vertex 1.034667e+02 1.164686e+01 2.760000e+01
      vertex 1.050000e+02 -2.728736e-13 2.760000e+01
    endloop
  endfacet
  facet normal 9.914449e-01 1.305262e-01 8.658997e-17
    outer loop
      vertex 1.034667e+02 1.164686e+01 2.760000e+01
      vertex 1.050000e+02 -7.732581e-14 0.000000e+00
      vertex 1.034667e+02 1.164686e+01 0.000000e+00
    endloop
  endfacet
  facet normal 9.238795e-01 3.826834e-01 -1.382214e-16
    outer loop
      vertex 1.034667e+02 1.164686e+01 0.000000e+00
      vertex 9.897114e+01 2.250000e+01 2.760000e+01
      vertex 1.034667e+02 1.164686e+01 2.760000e+01
    endloop
  endfacet
  facet normal 9.238795e-01 3.826834e-01 -1.382214e-16
    outer loop
      vertex 9.897114e+01 2.250000e+01 2.760000e+01
      vertex 1.034667e+02 1.164686e+01 0.000000e+00
      vertex 9.897114e+01 2.250000e+01 0.000000e+00
    endloop
  endfacet
  facet normal 7.933533e-01 6.087614e-01 -1.705547e-16
    outer loop
      vertex 9.897114e+01 2.250000e+01 0.000000e+00
      vertex 9.181981e+01 3.181981e+01 2.760000e+01
      vertex 9.897114e+01 2.250000e+01 2.760000e+01
    endloop
  endfacet
  facet normal 7.933533e-01 6.087614e-01 -1.705547e-16
    outer loop
      vertex 9.181981e+01 3.181981e+01 2.760000e+01
      vertex 9.897114e+01 2.250000e+01 0.000000e+00
      vertex 9.181981e+01 3.181981e+01 0.000000e+00
    endloop
  endfacet
  facet normal 6.087614e-01 7.933533e-01 -1.690000e-16
    outer loop
      vertex 9.181981e+01 3.181981e+01 0.000000e+00
      vertex 8.250000e+01 3.897114e+01 2.760000e+01
      vertex 9.181981e+01 3.181981e+01 2.760000e+01
    endloop
  endfacet
  facet normal 6.087614e-01 7.933533e-01 -1.690000e-16
    outer loop
      vertex 8.250000e+01 3.897114e+01 2.760000e+01
      vertex 9.181981e+01 3.181981e+01 0.000000e+00
      vertex 8.250000e+01 3.897114e+01 7.105427e-15
    endloop
  endfacet
  facet normal 3.826834e-01 9.238795e-01 -5.111630e-17
    outer loop
      vertex 8.250000e+01 3.897114e+01 7.105427e-15
      vertex 7.164686e+01 4.346666e+01 2.760000e+01
      vertex 8.250000e+01 3.897114e+01 2.760000e+01
    endloop
  endfacet
  facet normal 3.826834e-01 9.238795e-01 -5.111630e-17
    outer loop
      vertex 7.164686e+01 4.346666e+01 2.760000e+01
      vertex 8.250000e+01 3.897114e+01 7.105427e-15
      vertex 7.164686e+01 4.346666e+01 7.105427e-15
    endloop
  endfacet
  facet normal 1.305262e-01 9.914449e-01 2.300598e-17
    outer loop
      vertex 7.164686e+01 4.346666e+01 7.105427e-15
      vertex 6.000000e+01 4.500000e+01 2.760000e+01
      vertex 7.164686e+01 4.346666e+01 2.760000e+01
    endloop
  endfacet
  facet normal 1.305262e-01 9.914449e-01 2.300598e-17
    outer loop
      vertex 6.000000e+01 4.500000e+01 2.760000e+01
      vertex 7.164686e+01 4.346666e+01 7.105427e-15
      vertex 6.000000e+01 4.500000e+01 7.105427e-15
    endloop
  endfacet
  facet normal -1.305262e-01 9.914449e-01 2.833097e-17
    outer loop
      vertex 6.000000e+01 4.500000e+01 7.105427e-15
      vertex 4.835314e+01 4.346666e+01 2.760000e+01
      vertex 6.000000e+01 4.500000e+01 2.760000e+01
    endloop
  endfacet
  facet normal -1.305262e-01 9.914449e-01 2.833097e-17
    outer loop
      vertex 4.835314e+01 4.346666e+01 2.760000e+01
      vertex 6.000000e+01 4.500000e+01 7.105427e-15
      vertex 4.835314e+01 4.346666e+01 7.105427e-15
    endloop
  endfacet
  facet normal -3.826834e-01 9.238795e-01 7.818593e-17
    outer loop
      vertex 4.835314e+01 4.346666e+01 7.105427e-15
      vertex 3.750000e+01 3.897114e+01 2.760000e+01
      vertex 4.835314e+01 4.346666e+01 2.760000e+01
    endloop
  endfacet
  facet normal -3.826834e-01 9.238795e-01 7.818593e-17
    outer loop
      vertex 3.750000e+01 3.897114e+01 2.760000e+01
      vertex 4.835314e+01 4.346666e+01 7.105427e-15
      vertex 3.750000e+01 3.897114e+01 7.105427e-15
    endloop
  endfacet
  facet normal -6.087614e-01 7.933533e-01 1.453185e-16
    outer loop
      vertex 3.750000e+01 3.897114e+01 7.105427e-15
      vertex 2.818019e+01 3.181981e+01 2.760000e+01
      vertex 3.750000e+01 3.897114e+01 2.760000e+01
    endloop
  endfacet
  facet normal -6.087614e-01 7.933533e-01 1.453185e-16
    outer loop
      vertex 2.818019e+01 3.181981e+01 2.760000e+01
      vertex 3.750000e+01 3.897114e+01 7.105427e-15
      vertex 2.818019e+01 3.181981e+01 1.421085e-14
    endloop
  endfacet
  facet normal -7.933533e-01 6.087614e-01 2.394461e-17
    outer loop
      vertex 2.102886e+01 2.250000e+01 2.760000e+01
      vertex 2.818019e+01 3.181981e+01 1.421085e-14
      vertex 2.102886e+01 2.250000e+01 1.421085e-14
    endloop
  endfacet
  facet normal -7.933533e-01 6.087614e-01 2.394461e-17
    outer loop
      vertex 2.818019e+01 3.181981e+01 1.421085e-14
      vertex 2.102886e+01 2.250000e+01 2.760000e+01
      vertex 2.818019e+01 3.181981e+01 2.760000e+01
    endloop
  endfacet
  facet normal -9.238795e-01 3.826834e-01 2.645885e-17
    outer loop
      vertex 1.653334e+01 1.164686e+01 2.760000e+01
      vertex 2.102886e+01 2.250000e+01 1.421085e-14
      vertex 1.653334e+01 1.164686e+01 1.421085e-14
    endloop
  endfacet
  facet normal -9.238795e-01 3.826834e-01 2.645885e-17
    outer loop
      vertex 2.102886e+01 2.250000e+01 1.421085e-14
      vertex 1.653334e+01 1.164686e+01 2.760000e+01
      vertex 2.102886e+01 2.250000e+01 2.760000e+01
    endloop
  endfacet
  facet normal -9.914449e-01 1.305262e-01 1.444292e-16
    outer loop
      vertex 1.653334e+01 1.164686e+01 2.760000e+01
      vertex 1.500000e+01 1.827568e-13 1.421085e-14
      vertex 1.500000e+01 1.674427e-13 2.760000e+01
    endloop
  endfacet
  facet normal -9.914449e-01 1.305262e-01 1.444292e-16
    outer loop
      vertex 1.500000e+01 1.827568e-13 1.421085e-14
      vertex 1.653334e+01 1.164686e+01 2.760000e+01
      vertex 1.653334e+01 1.164686e+01 1.421085e-14
    endloop
  endfacet
  facet normal -9.914449e-01 -1.305262e-01 -5.867439e-17
    outer loop
      vertex 1.653334e+01 -1.164686e+01 2.760000e+01
      vertex 1.500000e+01 1.827568e-13 1.421085e-14
      vertex 1.653334e+01 -1.164686e+01 1.421085e-14
    endloop
  endfacet
  facet normal -9.914449e-01 -1.305262e-01 -5.867439e-17
    outer loop
      vertex 1.500000e+01 1.827568e-13 1.421085e-14
      vertex 1.653334e+01 -1.164686e+01 2.760000e+01
      vertex 1.500000e+01 1.674427e-13 2.760000e+01
    endloop
  endfacet
  facet normal -9.238795e-01 -3.826834e-01 1.761358e-16
    outer loop
      vertex 2.102886e+01 -2.250000e+01 2.760000e+01
      vertex 1.653334e+01 -1.164686e+01 1.421085e-14
      vertex 2.102886e+01 -2.250000e+01 1.421085e-14
    endloop
  endfacet
  facet normal -9.238795e-01 -3.826834e-01 1.761358e-16
    outer loop
      vertex 1.653334e+01 -1.164686e+01 1.421085e-14
      vertex 2.102886e+01 -2.250000e+01 2.760000e+01
      vertex 1.653334e+01 -1.164686e+01 2.760000e+01
    endloop
  endfacet
  facet normal -7.933533e-01 -6.087614e-01 2.058697e-16
    outer loop
      vertex 2.818019e+01 -3.181981e+01 2.760000e+01
      vertex 2.102886e+01 -2.250000e+01 1.421085e-14
      vertex 2.818019e+01 -3.181981e+01 1.421085e-14
    endloop
  endfacet
  facet normal -7.933533e-01 -6.087614e-01 2.058697e-16
    outer loop
      vertex 2.102886e+01 -2.250000e+01 1.421085e-14
      vertex 2.818019e+01 -3.181981e+01 2.760000e+01
      vertex 2.102886e+01 -2.250000e+01 2.760000e+01
    endloop
  endfacet
  facet normal -6.087614e-01 -7.933533e-01 1.430097e-16
    outer loop
      vertex 2.818019e+01 -3.181981e+01 1.421085e-14
      vertex 3.750000e+01 -3.897114e+01 2.760000e+01
      vertex 2.818019e+01 -3.181981e+01 2.760000e+01
    endloop
  endfacet
  facet normal -6.087614e-01 -7.933533e-01 1.430097e-16
    outer loop
      vertex 3.750000e+01 -3.897114e+01 2.760000e+01
      vertex 2.818019e+01 -3.181981e+01 1.421085e-14
      vertex 3.750000e+01 -3.897114e+01 7.105427e-15
    endloop
  endfacet
  facet normal -3.826834e-01 -9.238795e-01 3.274578e-18
    outer loop
      vertex 3.750000e+01 -3.897114e+01 7.105427e-15
      vertex 4.835314e+01 -4.346666e+01 2.760000e+01
      vertex 3.750000e+01 -3.897114e+01 2.760000e+01
    endloop
  endfacet
  facet normal -3.826834e-01 -9.238795e-01 3.274578e-18
    outer loop
      vertex 4.835314e+01 -4.346666e+01 2.760000e+01
      vertex 3.750000e+01 -3.897114e+01 7.105427e-15
      vertex 4.835314e+01 -4.346666e+01 7.105427e-15
    endloop
  endfacet
  facet normal -1.305262e-01 -9.914449e-01 -5.536896e-17
    outer loop
      vertex 4.835314e+01 -4.346666e+01 7.105427e-15
      vertex 6.000000e+01 -4.500000e+01 2.760000e+01
      vertex 4.835314e+01 -4.346666e+01 2.760000e+01
    endloop
  endfacet
  facet normal -1.305262e-01 -9.914449e-01 -5.536896e-17
    outer loop
      vertex 6.000000e+01 -4.500000e+01 2.760000e+01
      vertex 4.835314e+01 -4.346666e+01 7.105427e-15
      vertex 6.000000e+01 -4.500000e+01 7.105427e-15
    endloop
  endfacet
  facet normal 1.305262e-01 -9.914449e-01 2.497866e-18
    outer loop
      vertex 6.000000e+01 -4.500000e+01 7.105427e-15
      vertex 7.164686e+01 -4.346666e+01 2.760000e+01
      vertex 6.000000e+01 -4.500000e+01 2.760000e+01
    endloop
  endfacet
  facet normal 1.305262e-01 -9.914449e-01 2.497866e-18
    outer loop
      vertex 7.164686e+01 -4.346666e+01 2.760000e+01
      vertex 6.000000e+01 -4.500000e+01 7.105427e-15
      vertex 7.164686e+01 -4.346666e+01 7.105427e-15
    endloop
  endfacet
  facet normal 3.826834e-01 -9.238795e-01 -4.476943e-17
    outer loop
      vertex 7.164686e+01 -4.346666e+01 7.105427e-15
      vertex 8.250000e+01 -3.897114e+01 2.760000e+01
      vertex 7.164686e+01 -4.346666e+01 2.760000e+01
    endloop
  endfacet
  facet normal 3.826834e-01 -9.238795e-01 -4.476943e-17
    outer loop
      vertex 8.250000e+01 -3.897114e+01 2.760000e+01
      vertex 7.164686e+01 -4.346666e+01 7.105427e-15
      vertex 8.250000e+01 -3.897114e+01 7.105427e-15
    endloop
  endfacet
  facet normal 6.087614e-01 -7.933533e-01 -1.193282e-16
    outer loop
      vertex 8.250000e+01 -3.897114e+01 7.105427e-15
      vertex 9.181981e+01 -3.181981e+01 2.760000e+01
      vertex 8.250000e+01 -3.897114e+01 2.760000e+01
    endloop
  endfacet
  facet normal 6.087614e-01 -7.933533e-01 -1.193282e-16
    outer loop
      vertex 9.181981e+01 -3.181981e+01 2.760000e+01
      vertex 8.250000e+01 -3.897114e+01 7.105427e-15
      vertex 9.181981e+01 -3.181981e+01 0.000000e+00
    endloop
  endfacet
  facet normal 7.933533e-01 -6.087614e-01 -4.494936e-17
    outer loop
      vertex 9.181981e+01 -3.181981e+01 0.000000e+00
      vertex 9.897114e+01 -2.250000e+01 2.760000e+01
      vertex 9.181981e+01 -3.181981e+01 2.760000e+01
    endloop
  endfacet
  facet normal 7.933533e-01 -6.087614e-01 -4.494936e-17
    outer loop
      vertex 9.897114e+01 -2.250000e+01 2.760000e+01
      vertex 9.181981e+01 -3.181981e+01 0.000000e+00
      vertex 9.897114e+01 -2.250000e+01 0.000000e+00
    endloop
  endfacet
  facet normal 1.224647e-16 4.256826e-32 1.000000e+00
    outer loop
      vertex 6.310583e+01 1.159111e+01 4.720000e+01
      vertex 6.241481e+01 6.470476e-01 4.720000e+01
      vertex 6.250000e+01 4.592425e-16 4.720000e+01
    endloop
  endfacet
  facet normal 1.224647e-16 4.256826e-32 1.000000e+00
    outer loop
      vertex 6.241481e+01 6.470476e-01 4.720000e+01
      vertex 6.310583e+01 1.159111e+01 4.720000e+01
      vertex 6.000000e+01 1.200000e+01 4.720000e+01
    endloop
  endfacet
  facet normal 1.224647e-16 4.256826e-32 1.000000e+00
    outer loop
      vertex 6.241481e+01 6.470476e-01 4.720000e+01
      vertex 6.000000e+01 1.200000e+01 4.720000e+01
      vertex 6.216506e+01 1.250000e+00 4.720000e+01
    endloop
  endfacet
  facet normal 1.224647e-16 4.256826e-32 1.000000e+00
    outer loop
      vertex 6.216506e+01 1.250000e+00 4.720000e+01
      vertex 6.000000e+01 1.200000e+01 4.720000e+01
      vertex 6.176777e+01 1.767767e+00 4.720000e+01
    endloop
  endfacet
  facet normal 1.224647e-16 4.256826e-32 1.000000e+00
    outer loop
      vertex 6.176777e+01 1.767767e+00 4.720000e+01
      vertex 6.000000e+01 1.200000e+01 4.720000e+01
      vertex 6.125000e+01 2.165064e+00 4.720000e+01
    endloop
  endfacet
  facet normal 1.224647e-16 4.256826e-32 1.000000e+00
    outer loop
      vertex 6.125000e+01 2.165064e+00 4.720000e+01
      vertex 6.000000e+01 1.200000e+01 4.720000e+01
      vertex 6.064705e+01 2.414814e+00 4.720000e+01
    endloop
  endfacet
  facet normal 1.224647e-16 4.256826e-32 1.000000e+00
    outer loop
      vertex 6.064705e+01 2.414814e+00 4.720000e+01
      vertex 6.000000e+01 1.200000e+01 4.720000e+01
      vertex 6.000000e+01 2.500000e+00 4.720000e+01
    endloop
  endfacet
  facet normal 1.224647e-16 4.256826e-32 1.000000e+00
    outer loop
      vertex 6.000000e+01 2.500000e+00 4.720000e+01
      vertex 6.000000e+01 1.200000e+01 4.720000e+01
      vertex 5.935295e+01 2.414814e+00 4.720000e+01
    endloop
  endfacet
  facet normal 1.224647e-16 4.256826e-32 1.000000e+00
    outer loop
      vertex 5.935295e+01 2.414814e+00 4.720000e+01
      vertex 6.000000e+01 1.200000e+01 4.720000e+01
      vertex 5.689417e+01 1.159111e+01 4.720000e+01
    endloop
  endfacet
  facet normal 1.224647e-16 4.256826e-32 1.000000e+00
    outer loop
      vertex 5.935295e+01 2.414814e+00 4.720000e+01
      vertex 5.689417e+01 1.159111e+01 4.720000e+01
      vertex 5.875000e+01 2.165064e+00 4.720000e+01
    endloop
  endfacet
  facet normal 1.224647e-16 4.256826e-32 1.000000e+00
    outer loop
      vertex 5.875000e+01 2.165064e+00 4.720000e+01
      vertex 5.689417e+01 1.159111e+01 4.720000e+01
      vertex 5.823223e+01 1.767767e+00 4.720000e+01
    endloop
  endfacet
  facet normal 1.224647e-16 4.256826e-32 1.000000e+00
    outer loop
      vertex 5.823223e+01 1.767767e+00 4.720000e+01
      vertex 5.689417e+01 1.159111e+01 4.720000e+01
      vertex 5.783494e+01 1.250000e+00 4.720000e+01
    endloop
  endfacet
  facet normal 1.224647e-16 4.256826e-32 1.000000e+00
    outer loop
      vertex 5.783494e+01 1.250000e+00 4.720000e+01
      vertex 5.689417e+01 1.159111e+01 4.720000e+01
      vertex 5.758519e+01 6.470476e-01 4.720000e+01
    endloop
  endfacet
  facet normal 1.224647e-16 4.256826e-32 1.000000e+00
    outer loop
      vertex 5.758519e+01 6.470476e-01 4.720000e+01
      vertex 5.689417e+01 1.159111e+01 4.720000e+01
      vertex 5.750000e+01 -1.530808e-16 4.720000e+01
    endloop
  endfacet
  facet normal 1.224647e-16 4.256826e-32 1.000000e+00
    outer loop
      vertex 5.750000e+01 -1.530808e-16 4.720000e+01
      vertex 5.689417e+01 1.159111e+01 4.720000e+01
      vertex 5.689417e+01 -1.159111e+01 4.720000e+01
    endloop
  endfacet
  facet normal 1.224647e-16 4.256826e-32 1.000000e+00
    outer loop
      vertex 5.689417e+01 -1.159111e+01 4.720000e+01
      vertex 5.689417e+01 1.159111e+01 4.720000e+01
      vertex 5.400000e+01 -1.039230e+01 4.720000e+01
    endloop
  endfacet
  facet normal 1.224647e-16 4.256826e-32 1.000000e+00
    outer loop
      vertex 5.400000e+01 -1.039230e+01 4.720000e+01
      vertex 5.689417e+01 1.159111e+01 4.720000e+01
      vertex 5.400000e+01 1.039230e+01 4.720000e+01
    endloop
  endfacet
  facet normal 1.224647e-16 4.256826e-32 1.000000e+00
    outer loop
      vertex 5.400000e+01 -1.039230e+01 4.720000e+01
      vertex 5.400000e+01 1.039230e+01 4.720000e+01
      vertex 5.151472e+01 -8.485281e+00 4.720000e+01
    endloop
  endfacet
  facet normal 1.224647e-16 4.256826e-32 1.000000e+00
    outer loop
      vertex 5.151472e+01 -8.485281e+00 4.720000e+01
      vertex 5.400000e+01 1.039230e+01 4.720000e+01
      vertex 5.151472e+01 8.485281e+00 4.720000e+01
    endloop
  endfacet
  facet normal 1.224647e-16 4.256826e-32 1.000000e+00
    outer loop
      vertex 5.151472e+01 -8.485281e+00 4.720000e+01
      vertex 5.151472e+01 8.485281e+00 4.720000e+01
      vertex 4.960770e+01 -6.000000e+00 4.720000e+01
    endloop
  endfacet
  facet normal 1.224647e-16 4.256826e-32 1.000000e+00
    outer loop
      vertex 4.960770e+01 -6.000000e+00 4.720000e+01
      vertex 5.151472e+01 8.485281e+00 4.720000e+01
      vertex 4.960770e+01 6.000000e+00 4.720000e+01
    endloop
  endfacet
  facet normal 1.224647e-16 4.256826e-32 1.000000e+00
    outer loop
      vertex 4.960770e+01 -6.000000e+00 4.720000e+01
      vertex 4.960770e+01 6.000000e+00 4.720000e+01
      vertex 4.840889e+01 -3.105829e+00 4.720000e+01
    endloop
  endfacet
  facet normal 1.224647e-16 4.256826e-32 1.000000e+00
    outer loop
      vertex 4.840889e+01 -3.105829e+00 4.720000e+01
      vertex 4.960770e+01 6.000000e+00 4.720000e+01
      vertex 4.840889e+01 3.105829e+00 4.720000e+01
    endloop
  endfacet
  facet normal 1.224647e-16 4.256826e-32 1.000000e+00
    outer loop
      vertex 4.840889e+01 -3.105829e+00 4.720000e+01
      vertex 4.840889e+01 3.105829e+00 4.720000e+01
      vertex 4.800000e+01 -7.276630e-14 4.720000e+01
    endloop
  endfacet
  facet normal 1.224647e-16 4.256826e-32 1.000000e+00
    outer loop
      vertex 7.159111e+01 3.105829e+00 4.720000e+01
      vertex 7.159111e+01 -3.105829e+00 4.720000e+01
      vertex 7.200000e+01 4.465138e-14 4.720000e+01
    endloop
  endfacet
  facet normal 1.224647e-16 4.256826e-32 1.000000e+00
    outer loop
      vertex 7.159111e+01 -3.105829e+00 4.720000e+01
      vertex 7.159111e+01 3.105829e+00 4.720000e+01
      vertex 7.039230e+01 -6.000000e+00 4.720000e+01
    endloop
  endfacet
  facet normal 1.224647e-16 4.256826e-32 1.000000e+00
    outer loop
      vertex 7.039230e+01 -6.000000e+00 4.720000e+01
      vertex 7.159111e+01 3.105829e+00 4.720000e+01
      vertex 7.039230e+01 6.000000e+00 4.720000e+01
    endloop
  endfacet
  facet normal 1.224647e-16 4.256826e-32 1.000000e+00
    outer loop
      vertex 7.039230e+01 -6.000000e+00 4.720000e+01
      vertex 7.039230e+01 6.000000e+00 4.720000e+01
      vertex 6.848528e+01 -8.485281e+00 4.720000e+01
    endloop
  endfacet
  facet normal 1.224647e-16 4.256826e-32 1.000000e+00
    outer loop
      vertex 6.848528e+01 -8.485281e+00 4.720000e+01
      vertex 7.039230e+01 6.000000e+00 4.720000e+01
      vertex 6.848528e+01 8.485281e+00 4.720000e+01
    endloop
  endfacet
  facet normal 1.224647e-16 4.256826e-32 1.000000e+00
    outer loop
      vertex 6.848528e+01 -8.485281e+00 4.720000e+01
      vertex 6.848528e+01 8.485281e+00 4.720000e+01
      vertex 6.600000e+01 -1.039230e+01 4.720000e+01
    endloop
  endfacet
  facet normal 1.224647e-16 4.256826e-32 1.000000e+00
    outer loop
      vertex 6.600000e+01 -1.039230e+01 4.720000e+01
      vertex 6.848528e+01 8.485281e+00 4.720000e+01
      vertex 6.600000e+01 1.039230e+01 4.720000e+01
    endloop
  endfacet
  facet normal 1.224647e-16 4.256826e-32 1.000000e+00
    outer loop
      vertex 6.600000e+01 -1.039230e+01 4.720000e+01
      vertex 6.600000e+01 1.039230e+01 4.720000e+01
      vertex 6.310583e+01 -1.159111e+01 4.720000e+01
    endloop
  endfacet
  facet normal 1.224647e-16 4.256826e-32 1.000000e+00
    outer loop
      vertex 6.310583e+01 -1.159111e+01 4.720000e+01
      vertex 6.600000e+01 1.039230e+01 4.720000e+01
      vertex 6.310583e+01 1.159111e+01 4.720000e+01
    endloop
  endfacet
  facet normal 1.224647e-16 4.256826e-32 1.000000e+00
    outer loop
      vertex 6.310583e+01 -1.159111e+01 4.720000e+01
      vertex 6.310583e+01 1.159111e+01 4.720000e+01
      vertex 6.250000e+01 4.592425e-16 4.720000e+01
    endloop
  endfacet
  facet normal 1.224647e-16 4.256826e-32 1.000000e+00
    outer loop
      vertex 6.310583e+01 -1.159111e+01 4.720000e+01
      vertex 6.250000e+01 4.592425e-16 4.720000e+01
      vertex 6.241481e+01 -6.470476e-01 4.720000e+01
    endloop
  endfacet
  facet normal 1.224647e-16 4.256826e-32 1.000000e+00
    outer loop
      vertex 6.310583e+01 -1.159111e+01 4.720000e+01
      vertex 6.241481e+01 -6.470476e-01 4.720000e+01
      vertex 6.000000e+01 -1.200000e+01 4.720000e+01
    endloop
  endfacet
  facet normal 1.224647e-16 4.256826e-32 1.000000e+00
    outer loop
      vertex 6.000000e+01 -1.200000e+01 4.720000e+01
      vertex 6.241481e+01 -6.470476e-01 4.720000e+01
      vertex 6.216506e+01 -1.250000e+00 4.720000e+01
    endloop
  endfacet
  facet normal 1.224647e-16 4.256826e-32 1.000000e+00
    outer loop
      vertex 6.000000e+01 -1.200000e+01 4.720000e+01
      vertex 6.216506e+01 -1.250000e+00 4.720000e+01
      vertex 6.176777e+01 -1.767767e+00 4.720000e+01
    endloop
  endfacet
  facet normal 1.224647e-16 4.256826e-32 1.000000e+00
    outer loop
      vertex 6.000000e+01 -1.200000e+01 4.720000e+01
      vertex 6.176777e+01 -1.767767e+00 4.720000e+01
      vertex 5.875000e+01 -2.165064e+00 4.720000e+01
    endloop
  endfacet
  facet normal 1.224647e-16 4.256826e-32 1.000000e+00
    outer loop
      vertex 6.000000e+01 -1.200000e+01 4.720000e+01
      vertex 5.875000e+01 -2.165064e+00 4.720000e+01
      vertex 5.689417e+01 -1.159111e+01 4.720000e+01
    endloop
  endfacet
  facet normal 1.224647e-16 4.256826e-32 1.000000e+00
    outer loop
      vertex 5.689417e+01 -1.159111e+01 4.720000e+01
      vertex 5.875000e+01 -2.165064e+00 4.720000e+01
      vertex 5.823223e+01 -1.767767e+00 4.720000e+01
    endloop
  endfacet
  facet normal 1.224647e-16 4.256826e-32 1.000000e+00
    outer loop
      vertex 5.689417e+01 -1.159111e+01 4.720000e+01
      vertex 5.823223e+01 -1.767767e+00 4.720000e+01
      vertex 5.783494e+01 -1.250000e+00 4.720000e+01
    endloop
  endfacet
  facet normal 1.224647e-16 4.256826e-32 1.000000e+00
    outer loop
      vertex 5.689417e+01 -1.159111e+01 4.720000e+01
      vertex 5.783494e+01 -1.250000e+00 4.720000e+01
      vertex 5.758519e+01 -6.470476e-01 4.720000e+01
    endloop
  endfacet
  facet normal 1.224647e-16 4.256826e-32 1.000000e+00
    outer loop
      vertex 5.689417e+01 -1.159111e+01 4.720000e+01
      vertex 5.758519e+01 -6.470476e-01 4.720000e+01
      vertex 5.750000e+01 -1.530808e-16 4.720000e+01
    endloop
  endfacet
  facet normal 1.224647e-16 0.000000e+00 1.000000e+00
    outer loop
      vertex 6.241481e+01 6.470476e-01 3.320000e+01
      vertex 6.241481e+01 -6.470476e-01 3.320000e+01
      vertex 6.250000e+01 4.592425e-16 3.320000e+01
    endloop
  endfacet
  facet normal 1.224647e-16 0.000000e+00 1.000000e+00
    outer loop
      vertex 6.241481e+01 -6.470476e-01 3.320000e+01
      vertex 6.241481e+01 6.470476e-01 3.320000e+01
      vertex 6.216506e+01 -1.250000e+00 3.320000e+01
    endloop
  endfacet
  facet normal 1.224647e-16 0.000000e+00 1.000000e+00
    outer loop
      vertex 6.216506e+01 -1.250000e+00 3.320000e+01
      vertex 6.241481e+01 6.470476e-01 3.320000e+01
      vertex 6.216506e+01 1.250000e+00 3.320000e+01
    endloop
  endfacet
  facet normal 1.224647e-16 0.000000e+00 1.000000e+00
    outer loop
      vertex 6.216506e+01 -1.250000e+00 3.320000e+01
      vertex 6.216506e+01 1.250000e+00 3.320000e+01
      vertex 6.176777e+01 -1.767767e+00 3.320000e+01
    endloop
  endfacet
  facet normal 1.224647e-16 0.000000e+00 1.000000e+00
    outer loop
      vertex 6.176777e+01 -1.767767e+00 3.320000e+01
      vertex 6.216506e+01 1.250000e+00 3.320000e+01
      vertex 6.176777e+01 1.767767e+00 3.320000e+01
    endloop
  endfacet
  facet normal 1.224647e-16 0.000000e+00 1.000000e+00
    outer loop
      vertex 6.176777e+01 -1.767767e+00 3.320000e+01
      vertex 6.176777e+01 1.767767e+00 3.320000e+01
      vertex 5.875000e+01 -2.165064e+00 3.320000e+01
    endloop
  endfacet
  facet normal 1.224647e-16 0.000000e+00 1.000000e+00
    outer loop
      vertex 5.875000e+01 -2.165064e+00 3.320000e+01
      vertex 6.176777e+01 1.767767e+00 3.320000e+01
      vertex 6.125000e+01 2.165064e+00 3.320000e+01
    endloop
  endfacet
  facet normal 1.224647e-16 0.000000e+00 1.000000e+00
    outer loop
      vertex 5.875000e+01 -2.165064e+00 3.320000e+01
      vertex 6.125000e+01 2.165064e+00 3.320000e+01
      vertex 6.064705e+01 2.414814e+00 3.320000e+01
    endloop
  endfacet
  facet normal 1.224647e-16 0.000000e+00 1.000000e+00
    outer loop
      vertex 5.875000e+01 -2.165064e+00 3.320000e+01
      vertex 6.064705e+01 2.414814e+00 3.320000e+01
      vertex 6.000000e+01 2.500000e+00 3.320000e+01
    endloop
  endfacet
  facet normal 1.224647e-16 0.000000e+00 1.000000e+00
    outer loop
      vertex 5.875000e+01 -2.165064e+00 3.320000e+01
      vertex 6.000000e+01 2.500000e+00 3.320000e+01
      vertex 5.935295e+01 2.414814e+00 3.320000e+01
    endloop
  endfacet
  facet normal 1.224647e-16 0.000000e+00 1.000000e+00
    outer loop
      vertex 5.875000e+01 -2.165064e+00 3.320000e+01
      vertex 5.935295e+01 2.414814e+00 3.320000e+01
      vertex 5.875000e+01 2.165064e+00 3.320000e+01
    endloop
  endfacet
  facet normal 1.224647e-16 0.000000e+00 1.000000e+00
    outer loop
      vertex 5.875000e+01 -2.165064e+00 3.320000e+01
      vertex 5.875000e+01 2.165064e+00 3.320000e+01
      vertex 5.823223e+01 -1.767767e+00 3.320000e+01
    endloop
  endfacet
  facet normal 1.224647e-16 0.000000e+00 1.000000e+00
    outer loop
      vertex 5.823223e+01 -1.767767e+00 3.320000e+01
      vertex 5.875000e+01 2.165064e+00 3.320000e+01
      vertex 5.823223e+01 1.767767e+00 3.320000e+01
    endloop
  endfacet
  facet normal 1.224647e-16 0.000000e+00 1.000000e+00
    outer loop
      vertex 5.823223e+01 -1.767767e+00 3.320000e+01
      vertex 5.823223e+01 1.767767e+00 3.320000e+01
      vertex 5.783494e+01 -1.250000e+00 3.320000e+01
    endloop
  endfacet
  facet normal 1.224647e-16 0.000000e+00 1.000000e+00
    outer loop
      vertex 5.783494e+01 -1.250000e+00 3.320000e+01
      vertex 5.823223e+01 1.767767e+00 3.320000e+01
      vertex 5.783494e+01 1.250000e+00 3.320000e+01
    endloop
  endfacet
  facet normal 1.224647e-16 0.000000e+00 1.000000e+00
    outer loop
      vertex 5.783494e+01 -1.250000e+00 3.320000e+01
      vertex 5.783494e+01 1.250000e+00 3.320000e+01
      vertex 5.758519e+01 -6.470476e-01 3.320000e+01
    endloop
  endfacet
  facet normal 1.224647e-16 0.000000e+00 1.000000e+00
    outer loop
      vertex 5.758519e+01 -6.470476e-01 3.320000e+01
      vertex 5.783494e+01 1.250000e+00 3.320000e+01
      vertex 5.758519e+01 6.470476e-01 3.320000e+01
    endloop
  endfacet
  facet normal 1.224647e-16 0.000000e+00 1.000000e+00
    outer loop
      vertex 5.758519e+01 -6.470476e-01 3.320000e+01
      vertex 5.758519e+01 6.470476e-01 3.320000e+01
      vertex 5.750000e+01 -1.530808e-16 3.320000e+01
    endloop
  endfacet
  facet normal -1.305262e-01 9.914449e-01 1.598485e-17
    outer loop
      vertex 6.176777e+01 -1.767767e+00 3.320000e+01
      vertex 5.875000e+01 -2.165064e+00 4.720000e+01
      vertex 6.176777e+01 -1.767767e+00 4.720000e+01
    endloop
  endfacet
  facet normal -1.305262e-01 9.914449e-01 1.598485e-17
    outer loop
      vertex 5.875000e+01 -2.165064e+00 4.720000e+01
      vertex 6.176777e+01 -1.767767e+00 3.320000e+01
      vertex 5.875000e+01 -2.165064e+00 3.320000e+01
    endloop
  endfacet
  facet normal -9.717527e-01 -1.279337e-01 1.983169e-01
    outer loop
      vertex 4.840889e+01 -3.105829e+00 4.720000e+01
      vertex 4.400000e+01 -7.684409e-14 2.760000e+01
      vertex 4.454519e+01 -4.141105e+00 2.760000e+01
    endloop
  endfacet
  facet normal -9.717527e-01 -1.279337e-01 1.983169e-01
    outer loop
      vertex 4.400000e+01 -7.684409e-14 2.760000e+01
      vertex 4.840889e+01 -3.105829e+00 4.720000e+01
      vertex 4.800000e+01 -7.276630e-14 4.720000e+01
    endloop
  endfacet
  facet normal -9.055293e-01 -3.750826e-01 1.983169e-01
    outer loop
      vertex 4.960770e+01 -6.000000e+00 4.720000e+01
      vertex 4.454519e+01 -4.141105e+00 2.760000e+01
      vertex 4.614359e+01 -8.000000e+00 2.760000e+01
    endloop
  endfacet
  facet normal -9.055293e-01 -3.750826e-01 1.983169e-01
    outer loop
      vertex 4.454519e+01 -4.141105e+00 2.760000e+01
      vertex 4.960770e+01 -6.000000e+00 4.720000e+01
      vertex 4.840889e+01 -3.105829e+00 4.720000e+01
    endloop
  endfacet
  facet normal -7.775956e-01 -5.966702e-01 1.983169e-01
    outer loop
      vertex 5.151472e+01 -8.485281e+00 4.720000e+01
      vertex 4.614359e+01 -8.000000e+00 2.760000e+01
      vertex 4.868629e+01 -1.131371e+01 2.760000e+01
    endloop
  endfacet
  facet normal -7.775956e-01 -5.966702e-01 1.983169e-01
    outer loop
      vertex 4.614359e+01 -8.000000e+00 2.760000e+01
      vertex 5.151472e+01 -8.485281e+00 4.720000e+01
      vertex 4.960770e+01 -6.000000e+00 4.720000e+01
    endloop
  endfacet
  facet normal -5.966702e-01 -7.775956e-01 1.983169e-01
    outer loop
      vertex 4.868629e+01 -1.131371e+01 2.760000e+01
      vertex 5.400000e+01 -1.039230e+01 4.720000e+01
      vertex 5.151472e+01 -8.485281e+00 4.720000e+01
    endloop
  endfacet
  facet normal -5.966702e-01 -7.775956e-01 1.983169e-01
    outer loop
      vertex 5.400000e+01 -1.039230e+01 4.720000e+01
      vertex 4.868629e+01 -1.131371e+01 2.760000e+01
      vertex 5.200000e+01 -1.385641e+01 2.760000e+01
    endloop
  endfacet
  facet normal -3.750826e-01 -9.055293e-01 1.983169e-01
    outer loop
      vertex 5.200000e+01 -1.385641e+01 2.760000e+01
      vertex 5.689417e+01 -1.159111e+01 4.720000e+01
      vertex 5.400000e+01 -1.039230e+01 4.720000e+01
    endloop
  endfacet
  facet normal -3.750826e-01 -9.055293e-01 1.983169e-01
    outer loop
      vertex 5.689417e+01 -1.159111e+01 4.720000e+01
      vertex 5.200000e+01 -1.385641e+01 2.760000e+01
      vertex 5.585889e+01 -1.545481e+01 2.760000e+01
    endloop
  endfacet
  facet normal -1.279337e-01 -9.717527e-01 1.983169e-01
    outer loop
      vertex 5.585889e+01 -1.545481e+01 2.760000e+01
      vertex 6.000000e+01 -1.200000e+01 4.720000e+01
      vertex 5.689417e+01 -1.159111e+01 4.720000e+01
    endloop
  endfacet
  facet normal -1.279337e-01 -9.717527e-01 1.983169e-01
    outer loop
      vertex 6.000000e+01 -1.200000e+01 4.720000e+01
      vertex 5.585889e+01 -1.545481e+01 2.760000e+01
      vertex 6.000000e+01 -1.600000e+01 2.760000e+01
    endloop
  endfacet
  facet normal 1.279337e-01 -9.717527e-01 1.983169e-01
    outer loop
      vertex 6.000000e+01 -1.600000e+01 2.760000e+01
      vertex 6.310583e+01 -1.159111e+01 4.720000e+01
      vertex 6.000000e+01 -1.200000e+01 4.720000e+01
    endloop
  endfacet
  facet normal 1.279337e-01 -9.717527e-01 1.983169e-01
    outer loop
      vertex 6.310583e+01 -1.159111e+01 4.720000e+01
      vertex 6.000000e+01 -1.600000e+01 2.760000e+01
      vertex 6.414111e+01 -1.545481e+01 2.760000e+01
    endloop
  endfacet
  facet normal 3.750826e-01 -9.055293e-01 1.983169e-01
    outer loop
      vertex 6.414111e+01 -1.545481e+01 2.760000e+01
      vertex 6.600000e+01 -1.039230e+01 4.720000e+01
      vertex 6.310583e+01 -1.159111e+01 4.720000e+01
    endloop
  endfacet
  facet normal 3.750826e-01 -9.055293e-01 1.983169e-01
    outer loop
      vertex 6.600000e+01 -1.039230e+01 4.720000e+01
      vertex 6.414111e+01 -1.545481e+01 2.760000e+01
      vertex 6.800000e+01 -1.385641e+01 2.760000e+01
    endloop
  endfacet
  facet normal 5.966702e-01 -7.775956e-01 1.983169e-01
    outer loop
      vertex 6.800000e+01 -1.385641e+01 2.760000e+01
      vertex 6.848528e+01 -8.485281e+00 4.720000e+01
      vertex 6.600000e+01 -1.039230e+01 4.720000e+01
    endloop
  endfacet
  facet normal 5.966702e-01 -7.775956e-01 1.983169e-01
    outer loop
      vertex 6.848528e+01 -8.485281e+00 4.720000e+01
      vertex 6.800000e+01 -1.385641e+01 2.760000e+01
      vertex 7.131371e+01 -1.131371e+01 2.760000e+01
    endloop
  endfacet
  facet normal 7.775956e-01 -5.966702e-01 1.983169e-01
    outer loop
      vertex 7.385641e+01 -8.000000e+00 2.760000e+01
      vertex 6.848528e+01 -8.485281e+00 4.720000e+01
      vertex 7.131371e+01 -1.131371e+01 2.760000e+01
    endloop
  endfacet
  facet normal 7.775956e-01 -5.966702e-01 1.983169e-01
    outer loop
      vertex 6.848528e+01 -8.485281e+00 4.720000e+01
      vertex 7.385641e+01 -8.000000e+00 2.760000e+01
      vertex 7.039230e+01 -6.000000e+00 4.720000e+01
    endloop
  endfacet
  facet normal 9.055293e-01 -3.750826e-01 1.983169e-01
    outer loop
      vertex 7.545481e+01 -4.141105e+00 2.760000e+01
      vertex 7.039230e+01 -6.000000e+00 4.720000e+01
      vertex 7.385641e+01 -8.000000e+00 2.760000e+01
    endloop
  endfacet
  facet normal 9.055293e-01 -3.750826e-01 1.983169e-01
    outer loop
      vertex 7.039230e+01 -6.000000e+00 4.720000e+01
      vertex 7.545481e+01 -4.141105e+00 2.760000e+01
      vertex 7.159111e+01 -3.105829e+00 4.720000e+01
    endloop
  endfacet
  facet normal 9.717527e-01 -1.279337e-01 1.983169e-01
    outer loop
      vertex 7.600000e+01 6.979417e-14 2.760000e+01
      vertex 7.159111e+01 -3.105829e+00 4.720000e+01
      vertex 7.545481e+01 -4.141105e+00 2.760000e+01
    endloop
  endfacet
  facet normal 9.717527e-01 -1.279337e-01 1.983169e-01
    outer loop
      vertex 7.159111e+01 -3.105829e+00 4.720000e+01
      vertex 7.600000e+01 6.979417e-14 2.760000e+01
      vertex 7.200000e+01 4.465138e-14 4.720000e+01
    endloop
  endfacet
  facet normal 9.717527e-01 1.279337e-01 1.983169e-01
    outer loop
      vertex 7.600000e+01 6.979417e-14 2.760000e+01
      vertex 7.159111e+01 3.105829e+00 4.720000e+01
      vertex 7.200000e+01 4.465138e-14 4.720000e+01
    endloop
  endfacet
  facet normal 9.717527e-01 1.279337e-01 1.983169e-01
    outer loop
      vertex 7.159111e+01 3.105829e+00 4.720000e+01
      vertex 7.600000e+01 6.979417e-14 2.760000e+01
      vertex 7.545481e+01 4.141105e+00 2.760000e+01
    endloop
  endfacet
  facet normal 9.055293e-01 3.750826e-01 1.983169e-01
    outer loop
      vertex 7.545481e+01 4.141105e+00 2.760000e+01
      vertex 7.039230e+01 6.000000e+00 4.720000e+01
      vertex 7.159111e+01 3.105829e+00 4.720000e+01
    endloop
  endfacet
  facet normal 9.055293e-01 3.750826e-01 1.983169e-01
    outer loop
      vertex 7.039230e+01 6.000000e+00 4.720000e+01
      vertex 7.545481e+01 4.141105e+00 2.760000e+01
      vertex 7.385641e+01 8.000000e+00 2.760000e+01
    endloop
  endfacet
  facet normal 7.775956e-01 5.966702e-01 1.983169e-01
    outer loop
      vertex 7.385641e+01 8.000000e+00 2.760000e+01
      vertex 6.848528e+01 8.485281e+00 4.720000e+01
      vertex 7.039230e+01 6.000000e+00 4.720000e+01
    endloop
  endfacet
  facet normal 7.775956e-01 5.966702e-01 1.983169e-01
    outer loop
      vertex 6.848528e+01 8.485281e+00 4.720000e+01
      vertex 7.385641e+01 8.000000e+00 2.760000e+01
      vertex 7.131371e+01 1.131371e+01 2.760000e+01
    endloop
  endfacet
  facet normal 5.966702e-01 7.775956e-01 1.983169e-01
    outer loop
      vertex 7.131371e+01 1.131371e+01 2.760000e+01
      vertex 6.600000e+01 1.039230e+01 4.720000e+01
      vertex 6.848528e+01 8.485281e+00 4.720000e+01
    endloop
  endfacet
  facet normal 5.966702e-01 7.775956e-01 1.983169e-01
    outer loop
      vertex 6.600000e+01 1.039230e+01 4.720000e+01
      vertex 7.131371e+01 1.131371e+01 2.760000e+01
      vertex 6.800000e+01 1.385641e+01 2.760000e+01
    endloop
  endfacet
  facet normal 3.750826e-01 9.055293e-01 1.983169e-01
    outer loop
      vertex 6.800000e+01 1.385641e+01 2.760000e+01
      vertex 6.310583e+01 1.159111e+01 4.720000e+01
      vertex 6.600000e+01 1.039230e+01 4.720000e+01
    endloop
  endfacet
  facet normal 3.750826e-01 9.055293e-01 1.983169e-01
    outer loop
      vertex 6.310583e+01 1.159111e+01 4.720000e+01
      vertex 6.800000e+01 1.385641e+01 2.760000e+01
      vertex 6.414111e+01 1.545481e+01 2.760000e+01
    endloop
  endfacet
  facet normal 1.279337e-01 9.717527e-01 1.983169e-01
    outer loop
      vertex 6.414111e+01 1.545481e+01 2.760000e+01
      vertex 6.000000e+01 1.200000e+01 4.720000e+01
      vertex 6.310583e+01 1.159111e+01 4.720000e+01
    endloop
  endfacet
  facet normal 1.279337e-01 9.717527e-01 1.983169e-01
    outer loop
      vertex 6.000000e+01 1.200000e+01 4.720000e+01
      vertex 6.414111e+01 1.545481e+01 2.760000e+01
      vertex 6.000000e+01 1.600000e+01 2.760000e+01
    endloop
  endfacet
  facet normal -1.279337e-01 9.717527e-01 1.983169e-01
    outer loop
      vertex 6.000000e+01 1.600000e+01 2.760000e+01
      vertex 5.689417e+01 1.159111e+01 4.720000e+01
      vertex 6.000000e+01 1.200000e+01 4.720000e+01
    endloop
  endfacet
  facet normal -1.279337e-01 9.717527e-01 1.983169e-01
    outer loop
      vertex 5.689417e+01 1.159111e+01 4.720000e+01
      vertex 6.000000e+01 1.600000e+01 2.760000e+01
      vertex 5.585889e+01 1.545481e+01 2.760000e+01
    endloop
  endfacet
  facet normal -3.750826e-01 9.055293e-01 1.983169e-01
    outer loop
      vertex 5.585889e+01 1.545481e+01 2.760000e+01
      vertex 5.400000e+01 1.039230e+01 4.720000e+01
      vertex 5.689417e+01 1.159111e+01 4.720000e+01
    endloop
  endfacet
  facet normal -3.750826e-01 9.055293e-01 1.983169e-01
    outer loop
      vertex 5.400000e+01 1.039230e+01 4.720000e+01
      vertex 5.585889e+01 1.545481e+01 2.760000e+01
      vertex 5.200000e+01 1.385641e+01 2.760000e+01
    endloop
  endfacet
  facet normal -5.966702e-01 7.775956e-01 1.983169e-01
    outer loop
      vertex 5.200000e+01 1.385641e+01 2.760000e+01
      vertex 5.151472e+01 8.485281e+00 4.720000e+01
      vertex 5.400000e+01 1.039230e+01 4.720000e+01
    endloop
  endfacet
  facet normal -5.966702e-01 7.775956e-01 1.983169e-01
    outer loop
      vertex 5.151472e+01 8.485281e+00 4.720000e+01
      vertex 5.200000e+01 1.385641e+01 2.760000e+01
      vertex 4.868629e+01 1.131371e+01 2.760000e+01
    endloop
  endfacet
  facet normal -7.775956e-01 5.966702e-01 1.983169e-01
    outer loop
      vertex 5.151472e+01 8.485281e+00 4.720000e+01
      vertex 4.614359e+01 8.000000e+00 2.760000e+01
      vertex 4.960770e+01 6.000000e+00 4.720000e+01
    endloop
  endfacet
  facet normal -7.775956e-01 5.966702e-01 1.983169e-01
    outer loop
      vertex 4.614359e+01 8.000000e+00 2.760000e+01
      vertex 5.151472e+01 8.485281e+00 4.720000e+01
      vertex 4.868629e+01 1.131371e+01 2.760000e+01
    endloop
  endfacet
  facet normal -9.055293e-01 3.750826e-01 1.983169e-01
    outer loop
      vertex 4.960770e+01 6.000000e+00 4.720000e+01
      vertex 4.454519e+01 4.141105e+00 2.760000e+01
      vertex 4.840889e+01 3.105829e+00 4.720000e+01
    endloop
  endfacet
  facet normal -9.055293e-01 3.750826e-01 1.983169e-01
    outer loop
      vertex 4.454519e+01 4.141105e+00 2.760000e+01
      vertex 4.960770e+01 6.000000e+00 4.720000e+01
      vertex 4.614359e+01 8.000000e+00 2.760000e+01
    endloop
  endfacet
  facet normal -9.717527e-01 1.279337e-01 1.983169e-01
    outer loop
      vertex 4.800000e+01 -7.276630e-14 4.720000e+01
      vertex 4.454519e+01 4.141105e+00 2.760000e+01
      vertex 4.400000e+01 -7.684409e-14 2.760000e+01
    endloop
  endfacet
  facet normal -9.717527e-01 1.279337e-01 1.983169e-01
    outer loop
      vertex 4.454519e+01 4.141105e+00 2.760000e+01
      vertex 4.800000e+01 -7.276630e-14 4.720000e+01
      vertex 4.840889e+01 3.105829e+00 4.720000e+01
    endloop
  endfacet
  facet normal -1.224647e-16 -1.275136e-31 -1.000000e+00
    outer loop
      vertex 6.682449e+01 -1.557647e+00 2.500000e+01
      vertex 6.682449e+01 1.557647e+00 2.500000e+01
      vertex 6.700000e+01 -4.386138e-14 2.500000e+01
    endloop
  endfacet
  facet normal -1.224647e-16 -1.275136e-31 -1.000000e+00
    outer loop
      vertex 6.682449e+01 1.557647e+00 2.500000e+01
      vertex 6.682449e+01 -1.557647e+00 2.500000e+01
      vertex 6.630678e+01 3.037186e+00 2.500000e+01
    endloop
  endfacet
  facet normal -1.224647e-16 -1.275136e-31 -1.000000e+00
    outer loop
      vertex 6.630678e+01 3.037186e+00 2.500000e+01
      vertex 6.682449e+01 -1.557647e+00 2.500000e+01
      vertex 6.630678e+01 -3.037186e+00 2.500000e+01
    endloop
  endfacet
  facet normal -1.224647e-16 -1.275136e-31 -1.000000e+00
    outer loop
      vertex 6.630678e+01 3.037186e+00 2.500000e+01
      vertex 6.630678e+01 -3.037186e+00 2.500000e+01
      vertex 6.547282e+01 4.364429e+00 2.500000e+01
    endloop
  endfacet
  facet normal -1.224647e-16 -1.275136e-31 -1.000000e+00
    outer loop
      vertex 6.547282e+01 4.364429e+00 2.500000e+01
      vertex 6.630678e+01 -3.037186e+00 2.500000e+01
      vertex 6.547282e+01 -4.364429e+00 2.500000e+01
    endloop
  endfacet
  facet normal -1.224647e-16 -1.275136e-31 -1.000000e+00
    outer loop
      vertex 6.547282e+01 4.364429e+00 2.500000e+01
      vertex 6.547282e+01 -4.364429e+00 2.500000e+01
      vertex 6.436443e+01 5.472820e+00 2.500000e+01
    endloop
  endfacet
  facet normal -1.224647e-16 -1.275136e-31 -1.000000e+00
    outer loop
      vertex 6.436443e+01 5.472820e+00 2.500000e+01
      vertex 6.547282e+01 -4.364429e+00 2.500000e+01
      vertex 6.436443e+01 -5.472820e+00 2.500000e+01
    endloop
  endfacet
  facet normal -1.224647e-16 -1.275136e-31 -1.000000e+00
    outer loop
      vertex 6.436443e+01 5.472820e+00 2.500000e+01
      vertex 6.436443e+01 -5.472820e+00 2.500000e+01
      vertex 6.303719e+01 6.306782e+00 2.500000e+01
    endloop
  endfacet
  facet normal -1.224647e-16 -1.275136e-31 -1.000000e+00
    outer loop
      vertex 6.303719e+01 6.306782e+00 2.500000e+01
      vertex 6.436443e+01 -5.472820e+00 2.500000e+01
      vertex 6.303719e+01 -6.306782e+00 2.500000e+01
    endloop
  endfacet
  facet normal -1.224647e-16 -1.275136e-31 -1.000000e+00
    outer loop
      vertex 6.303719e+01 6.306782e+00 2.500000e+01
      vertex 6.303719e+01 -6.306782e+00 2.500000e+01
      vertex 6.155765e+01 6.824495e+00 2.500000e+01
    endloop
  endfacet
  facet normal -1.224647e-16 -1.275136e-31 -1.000000e+00
    outer loop
      vertex 6.155765e+01 6.824495e+00 2.500000e+01
      vertex 6.303719e+01 -6.306782e+00 2.500000e+01
      vertex 6.155765e+01 -6.824495e+00 2.500000e+01
    endloop
  endfacet
  facet normal -1.224647e-16 -1.275136e-31 -1.000000e+00
    outer loop
      vertex 6.155765e+01 6.824495e+00 2.500000e+01
      vertex 6.155765e+01 -6.824495e+00 2.500000e+01
      vertex 6.000000e+01 7.000000e+00 2.500000e+01
    endloop
  endfacet
  facet normal -1.224647e-16 -1.275136e-31 -1.000000e+00
    outer loop
      vertex 6.000000e+01 7.000000e+00 2.500000e+01
      vertex 6.155765e+01 -6.824495e+00 2.500000e+01
      vertex 6.000000e+01 -7.000000e+00 2.500000e+01
    endloop
  endfacet
  facet normal -1.224647e-16 -1.275136e-31 -1.000000e+00
    outer loop
      vertex 6.000000e+01 7.000000e+00 2.500000e+01
      vertex 6.000000e+01 -7.000000e+00 2.500000e+01
      vertex 5.844235e+01 6.824495e+00 2.500000e+01
    endloop
  endfacet
  facet normal -1.224647e-16 -1.275136e-31 -1.000000e+00
    outer loop
      vertex 5.844235e+01 6.824495e+00 2.500000e+01
      vertex 6.000000e+01 -7.000000e+00 2.500000e+01
      vertex 5.844235e+01 -6.824495e+00 2.500000e+01
    endloop
  endfacet
  facet normal -1.224647e-16 -1.275136e-31 -1.000000e+00
    outer loop
      vertex 5.844235e+01 6.824495e+00 2.500000e+01
      vertex 5.844235e+01 -6.824495e+00 2.500000e+01
      vertex 5.696281e+01 6.306782e+00 2.500000e+01
    endloop
  endfacet
  facet normal -1.224647e-16 -1.275136e-31 -1.000000e+00
    outer loop
      vertex 5.696281e+01 6.306782e+00 2.500000e+01
      vertex 5.844235e+01 -6.824495e+00 2.500000e+01
      vertex 5.696281e+01 -6.306782e+00 2.500000e+01
    endloop
  endfacet
  facet normal -1.224647e-16 -1.275136e-31 -1.000000e+00
    outer loop
      vertex 5.696281e+01 6.306782e+00 2.500000e+01
      vertex 5.696281e+01 -6.306782e+00 2.500000e+01
      vertex 5.563557e+01 5.472820e+00 2.500000e+01
    endloop
  endfacet
  facet normal -1.224647e-16 -1.275136e-31 -1.000000e+00
    outer loop
      vertex 5.563557e+01 5.472820e+00 2.500000e+01
      vertex 5.696281e+01 -6.306782e+00 2.500000e+01
      vertex 5.563557e+01 -5.472820e+00 2.500000e+01
    endloop
  endfacet
  facet normal -1.224647e-16 -1.275136e-31 -1.000000e+00
    outer loop
      vertex 5.563557e+01 5.472820e+00 2.500000e+01
      vertex 5.563557e+01 -5.472820e+00 2.500000e+01
      vertex 5.452718e+01 4.364429e+00 2.500000e+01
    endloop
  endfacet
  facet normal -1.224647e-16 -1.275136e-31 -1.000000e+00
    outer loop
      vertex 5.452718e+01 4.364429e+00 2.500000e+01
      vertex 5.563557e+01 -5.472820e+00 2.500000e+01
      vertex 5.452718e+01 -4.364429e+00 2.500000e+01
    endloop
  endfacet
  facet normal -1.224647e-16 -1.275136e-31 -1.000000e+00
    outer loop
      vertex 5.452718e+01 4.364429e+00 2.500000e+01
      vertex 5.452718e+01 -4.364429e+00 2.500000e+01
      vertex 5.369322e+01 3.037186e+00 2.500000e+01
    endloop
  endfacet
  facet normal -1.224647e-16 -1.275136e-31 -1.000000e+00
    outer loop
      vertex 5.369322e+01 3.037186e+00 2.500000e+01
      vertex 5.452718e+01 -4.364429e+00 2.500000e+01
      vertex 5.369322e+01 -3.037186e+00 2.500000e+01
    endloop
  endfacet
  facet normal -1.224647e-16 -1.275136e-31 -1.000000e+00
    outer loop
      vertex 5.369322e+01 3.037186e+00 2.500000e+01
      vertex 5.369322e+01 -3.037186e+00 2.500000e+01
      vertex 5.317551e+01 1.557647e+00 2.500000e+01
    endloop
  endfacet
  facet normal -1.224647e-16 -1.275136e-31 -1.000000e+00
    outer loop
      vertex 5.317551e+01 1.557647e+00 2.500000e+01
      vertex 5.369322e+01 -3.037186e+00 2.500000e+01
      vertex 5.317551e+01 -1.557647e+00 2.500000e+01
    endloop
  endfacet
  facet normal -1.224647e-16 -1.275136e-31 -1.000000e+00
    outer loop
      vertex 5.317551e+01 1.557647e+00 2.500000e+01
      vertex 5.317551e+01 -1.557647e+00 2.500000e+01
      vertex 5.300000e+01 3.524595e-15 2.500000e+01
    endloop
  endfacet
  facet normal 3.302763e-01 -9.438754e-01 4.095582e-03
    outer loop
      vertex 5.639216e+01 5.998623e+00 7.105427e-15
      vertex 5.844235e+01 6.824495e+00 2.500000e+01
      vertex 5.696281e+01 6.306782e+00 2.500000e+01
    endloop
  endfacet
  facet normal 4.162140e-01 -9.092575e-01 -4.095582e-03
    outer loop
      vertex 5.781744e+01 6.651046e+00 7.105427e-15
      vertex 5.844235e+01 6.824495e+00 2.500000e+01
      vertex 5.639216e+01 5.998623e+00 7.105427e-15
    endloop
  endfacet
  facet normal -1.119635e-01 -9.937039e-01 4.095582e-03
    outer loop
      vertex 5.935215e+01 6.969956e+00 7.105427e-15
      vertex 6.155765e+01 6.824495e+00 2.500000e+01
      vertex 6.000000e+01 7.000000e+00 2.500000e+01
    endloop
  endfacet
  facet normal -1.951612e-02 -9.998012e-01 -4.095581e-03
    outer loop
      vertex 6.091936e+01 6.939365e+00 7.105427e-15
      vertex 6.155765e+01 6.824495e+00 2.500000e+01
      vertex 5.935215e+01 6.969956e+00 7.105427e-15
    endloop
  endfacet
  facet normal -3.302763e-01 -9.438754e-01 4.095582e-03
    outer loop
      vertex 6.091936e+01 6.939365e+00 7.105427e-15
      vertex 6.303719e+01 6.306782e+00 2.500000e+01
      vertex 6.155765e+01 6.824495e+00 2.500000e+01
    endloop
  endfacet
  facet normal -2.415035e-01 -9.703914e-01 -4.095582e-03
    outer loop
      vertex 6.244046e+01 6.560804e+00 7.105427e-15
      vertex 6.303719e+01 6.306782e+00 2.500000e+01
      vertex 6.091936e+01 6.939365e+00 7.105427e-15
    endloop
  endfacet
  facet normal -9.937108e-01 1.119643e-01 -1.707250e-03
    outer loop
      vertex 6.700000e+01 -4.386138e-14 2.500000e+01
      vertex 6.693936e+01 -9.193570e-01 7.105427e-15
      vertex 6.682449e+01 -1.557647e+00 2.500000e+01
    endloop
  endfacet
  facet normal -9.998081e-01 1.951625e-02 1.707250e-03
    outer loop
      vertex 6.696996e+01 6.478471e-01 7.105427e-15
      vertex 6.693936e+01 -9.193570e-01 7.105427e-15
      vertex 6.700000e+01 -4.386138e-14 2.500000e+01
    endloop
  endfacet
  facet normal -9.937108e-01 -1.119643e-01 -1.707250e-03
    outer loop
      vertex 6.682449e+01 1.557647e+00 2.500000e+01
      vertex 6.696996e+01 6.478471e-01 7.105427e-15
      vertex 6.700000e+01 -4.386138e-14 2.500000e+01
    endloop
  endfacet
  facet normal -9.790836e-01 -2.034513e-01 1.707250e-03
    outer loop
      vertex 6.665105e+01 2.182565e+00 7.105427e-15
      vertex 6.696996e+01 6.478471e-01 7.105427e-15
      vertex 6.682449e+01 1.557647e+00 2.500000e+01
    endloop
  endfacet
  facet normal -9.092575e-01 -4.162140e-01 -4.095582e-03
    outer loop
      vertex 6.599862e+01 3.607841e+00 7.105427e-15
      vertex 6.665105e+01 2.182565e+00 7.105427e-15
      vertex 6.682449e+01 1.557647e+00 2.500000e+01
    endloop
  endfacet
  facet normal -9.438754e-01 -3.302763e-01 4.095582e-03
    outer loop
      vertex 6.599862e+01 3.607841e+00 7.105427e-15
      vertex 6.682449e+01 1.557647e+00 2.500000e+01
      vertex 6.630678e+01 3.037186e+00 2.500000e+01
    endloop
  endfacet
  facet normal -9.438819e-01 3.302786e-01 -1.707250e-03
    outer loop
      vertex 6.682449e+01 -1.557647e+00 2.500000e+01
      vertex 6.656080e+01 -2.440461e+00 7.105427e-15
      vertex 6.630678e+01 -3.037186e+00 2.500000e+01
    endloop
  endfacet
  facet normal -9.703980e-01 2.415052e-01 1.707250e-03
    outer loop
      vertex 6.693936e+01 -9.193570e-01 7.105427e-15
      vertex 6.656080e+01 -2.440461e+00 7.105427e-15
      vertex 6.682449e+01 -1.557647e+00 2.500000e+01
    endloop
  endfacet
  facet normal 1.119635e-01 -9.937039e-01 4.095582e-03
    outer loop
      vertex 5.781744e+01 6.651046e+00 7.105427e-15
      vertex 6.000000e+01 7.000000e+00 2.500000e+01
      vertex 5.844235e+01 6.824495e+00 2.500000e+01
    endloop
  endfacet
  facet normal 2.034499e-01 -9.790768e-01 -4.095582e-03
    outer loop
      vertex 5.935215e+01 6.969956e+00 7.105427e-15
      vertex 6.000000e+01 7.000000e+00 2.500000e+01
      vertex 5.781744e+01 6.651046e+00 7.105427e-15
    endloop
  endfacet
  facet normal -3.302763e-01 9.438754e-01 4.095582e-03
    outer loop
      vertex 6.360784e+01 -5.998623e+00 7.105427e-15
      vertex 6.155765e+01 -6.824495e+00 2.500000e+01
      vertex 6.303719e+01 -6.306782e+00 2.500000e+01
    endloop
  endfacet
  facet normal -4.162140e-01 9.092575e-01 -4.095582e-03
    outer loop
      vertex 6.218256e+01 -6.651046e+00 7.105427e-15
      vertex 6.155765e+01 -6.824495e+00 2.500000e+01
      vertex 6.360784e+01 -5.998623e+00 7.105427e-15
    endloop
  endfacet
  facet normal -1.119635e-01 9.937039e-01 4.095582e-03
    outer loop
      vertex 6.218256e+01 -6.651046e+00 7.105427e-15
      vertex 6.000000e+01 -7.000000e+00 2.500000e+01
      vertex 6.155765e+01 -6.824495e+00 2.500000e+01
    endloop
  endfacet
  facet normal -2.034499e-01 9.790768e-01 -4.095582e-03
    outer loop
      vertex 6.064785e+01 -6.969956e+00 7.105427e-15
      vertex 6.000000e+01 -7.000000e+00 2.500000e+01
      vertex 6.218256e+01 -6.651046e+00 7.105427e-15
    endloop
  endfacet
  facet normal 9.703980e-01 -2.415052e-01 1.707250e-03
    outer loop
      vertex 5.343920e+01 2.440461e+00 7.105427e-15
      vertex 5.317551e+01 1.557647e+00 2.500000e+01
      vertex 5.306064e+01 9.193570e-01 7.105427e-15
    endloop
  endfacet
  facet normal 9.438819e-01 -3.302786e-01 -1.707250e-03
    outer loop
      vertex 5.369322e+01 3.037186e+00 2.500000e+01
      vertex 5.317551e+01 1.557647e+00 2.500000e+01
      vertex 5.343920e+01 2.440461e+00 7.105427e-15
    endloop
  endfacet
  facet normal 9.438754e-01 3.302763e-01 4.095582e-03
    outer loop
      vertex 5.317551e+01 -1.557647e+00 2.500000e+01
      vertex 5.369322e+01 -3.037186e+00 2.500000e+01
      vertex 5.400138e+01 -3.607841e+00 7.105427e-15
    endloop
  endfacet
  facet normal 9.092575e-01 4.162140e-01 -4.095582e-03
    outer loop
      vertex 5.317551e+01 -1.557647e+00 2.500000e+01
      vertex 5.400138e+01 -3.607841e+00 7.105427e-15
      vertex 5.334895e+01 -2.182565e+00 7.105427e-15
    endloop
  endfacet
  facet normal 9.937039e-01 1.119635e-01 4.095582e-03
    outer loop
      vertex 5.300000e+01 3.524595e-15 2.500000e+01
      vertex 5.317551e+01 -1.557647e+00 2.500000e+01
      vertex 5.334895e+01 -2.182565e+00 7.105427e-15
    endloop
  endfacet
  facet normal 9.790768e-01 2.034499e-01 -4.095582e-03
    outer loop
      vertex 5.300000e+01 3.524595e-15 2.500000e+01
      vertex 5.334895e+01 -2.182565e+00 7.105427e-15
      vertex 5.303004e+01 -6.478471e-01 7.105427e-15
    endloop
  endfacet
  facet normal 9.998081e-01 -1.951625e-02 1.707250e-03
    outer loop
      vertex 5.306064e+01 9.193570e-01 7.105427e-15
      vertex 5.300000e+01 3.524595e-15 2.500000e+01
      vertex 5.303004e+01 -6.478471e-01 7.105427e-15
    endloop
  endfacet
  facet normal 9.937108e-01 -1.119643e-01 -1.707250e-03
    outer loop
      vertex 5.317551e+01 1.557647e+00 2.500000e+01
      vertex 5.300000e+01 3.524595e-15 2.500000e+01
      vertex 5.306064e+01 9.193570e-01 7.105427e-15
    endloop
  endfacet
  facet normal 3.302763e-01 9.438754e-01 4.095582e-03
    outer loop
      vertex 5.908064e+01 -6.939365e+00 7.105427e-15
      vertex 5.696281e+01 -6.306782e+00 2.500000e+01
      vertex 5.844235e+01 -6.824495e+00 2.500000e+01
    endloop
  endfacet
  facet normal 2.415035e-01 9.703914e-01 -4.095582e-03
    outer loop
      vertex 5.755954e+01 -6.560804e+00 7.105427e-15
      vertex 5.696281e+01 -6.306782e+00 2.500000e+01
      vertex 5.908064e+01 -6.939365e+00 7.105427e-15
    endloop
  endfacet
  facet normal 1.119635e-01 9.937039e-01 4.095582e-03
    outer loop
      vertex 6.064785e+01 -6.969956e+00 7.105427e-15
      vertex 5.844235e+01 -6.824495e+00 2.500000e+01
      vertex 6.000000e+01 -7.000000e+00 2.500000e+01
    endloop
  endfacet
  facet normal 1.951612e-02 9.998012e-01 -4.095581e-03
    outer loop
      vertex 5.908064e+01 -6.939365e+00 7.105427e-15
      vertex 5.844235e+01 -6.824495e+00 2.500000e+01
      vertex 6.064785e+01 -6.969956e+00 7.105427e-15
    endloop
  endfacet
  facet normal 5.320276e-01 -8.467171e-01 4.095582e-03
    outer loop
      vertex 5.514780e+01 5.045405e+00 7.105427e-15
      vertex 5.696281e+01 6.306782e+00 2.500000e+01
      vertex 5.563557e+01 5.472820e+00 2.500000e+01
    endloop
  endfacet
  facet normal 6.081075e-01 -7.938441e-01 -4.095582e-03
    outer loop
      vertex 5.639216e+01 5.998623e+00 7.105427e-15
      vertex 5.696281e+01 6.306782e+00 2.500000e+01
      vertex 5.514780e+01 5.045405e+00 7.105427e-15
    endloop
  endfacet
  facet normal 7.071009e-01 -7.071009e-01 4.095581e-03
    outer loop
      vertex 5.414674e+01 3.839190e+00 7.105427e-15
      vertex 5.563557e+01 5.472820e+00 2.500000e+01
      vertex 5.452718e+01 4.364429e+00 2.500000e+01
    endloop
  endfacet
  facet normal 7.695080e-01 -6.386241e-01 -4.095582e-03
    outer loop
      vertex 5.563557e+01 5.472820e+00 2.500000e+01
      vertex 5.414674e+01 3.839190e+00 7.105427e-15
      vertex 5.514780e+01 5.045405e+00 7.105427e-15
    endloop
  endfacet
  facet normal 8.923282e-01 -4.513841e-01 1.707250e-03
    outer loop
      vertex 5.414674e+01 3.839190e+00 7.105427e-15
      vertex 5.369322e+01 3.037186e+00 2.500000e+01
      vertex 5.343920e+01 2.440461e+00 7.105427e-15
    endloop
  endfacet
  facet normal 8.467230e-01 -5.320313e-01 -1.707250e-03
    outer loop
      vertex 5.452718e+01 4.364429e+00 2.500000e+01
      vertex 5.369322e+01 3.037186e+00 2.500000e+01
      vertex 5.414674e+01 3.839190e+00 7.105427e-15
    endloop
  endfacet
  facet normal -8.467230e-01 -5.320313e-01 -1.707250e-03
    outer loop
      vertex 6.547282e+01 4.364429e+00 2.500000e+01
      vertex 6.599862e+01 3.607841e+00 7.105427e-15
      vertex 6.630678e+01 3.037186e+00 2.500000e+01
    endloop
  endfacet
  facet normal -7.938496e-01 -6.081117e-01 1.707250e-03
    outer loop
      vertex 6.504540e+01 4.852204e+00 7.105427e-15
      vertex 6.599862e+01 3.607841e+00 7.105427e-15
      vertex 6.547282e+01 4.364429e+00 2.500000e+01
    endloop
  endfacet
  facet normal -5.320276e-01 -8.467171e-01 4.095582e-03
    outer loop
      vertex 6.244046e+01 6.560804e+00 7.105427e-15
      vertex 6.436443e+01 5.472820e+00 2.500000e+01
      vertex 6.303719e+01 6.306782e+00 2.500000e+01
    endloop
  endfacet
  facet normal -4.513809e-01 -8.923220e-01 -4.095582e-03
    outer loop
      vertex 6.383919e+01 5.853258e+00 7.105427e-15
      vertex 6.436443e+01 5.472820e+00 2.500000e+01
      vertex 6.244046e+01 6.560804e+00 7.105427e-15
    endloop
  endfacet
  facet normal -7.071058e-01 -7.071058e-01 -1.707250e-03
    outer loop
      vertex 6.436443e+01 5.472820e+00 2.500000e+01
      vertex 6.504540e+01 4.852204e+00 7.105427e-15
      vertex 6.547282e+01 4.364429e+00 2.500000e+01
    endloop
  endfacet
  facet normal -6.386285e-01 -7.695133e-01 1.707250e-03
    outer loop
      vertex 6.504540e+01 4.852204e+00 7.105427e-15
      vertex 6.436443e+01 5.472820e+00 2.500000e+01
      vertex 6.383919e+01 5.853258e+00 7.105427e-15
    endloop
  endfacet
  facet normal -8.467230e-01 5.320313e-01 -1.707250e-03
    outer loop
      vertex 6.630678e+01 -3.037186e+00 2.500000e+01
      vertex 6.585326e+01 -3.839190e+00 7.105427e-15
      vertex 6.547282e+01 -4.364429e+00 2.500000e+01
    endloop
  endfacet
  facet normal -8.923282e-01 4.513841e-01 1.707250e-03
    outer loop
      vertex 6.656080e+01 -2.440461e+00 7.105427e-15
      vertex 6.585326e+01 -3.839190e+00 7.105427e-15
      vertex 6.630678e+01 -3.037186e+00 2.500000e+01
    endloop
  endfacet
  facet normal -7.071009e-01 7.071009e-01 4.095581e-03
    outer loop
      vertex 6.585326e+01 -3.839190e+00 7.105427e-15
      vertex 6.436443e+01 -5.472820e+00 2.500000e+01
      vertex 6.547282e+01 -4.364429e+00 2.500000e+01
    endloop
  endfacet
  facet normal -7.695080e-01 6.386241e-01 -4.095582e-03
    outer loop
      vertex 6.585326e+01 -3.839190e+00 7.105427e-15
      vertex 6.485220e+01 -5.045405e+00 7.105427e-15
      vertex 6.436443e+01 -5.472820e+00 2.500000e+01
    endloop
  endfacet
  facet normal -5.320276e-01 8.467171e-01 4.095582e-03
    outer loop
      vertex 6.485220e+01 -5.045405e+00 7.105427e-15
      vertex 6.303719e+01 -6.306782e+00 2.500000e+01
      vertex 6.436443e+01 -5.472820e+00 2.500000e+01
    endloop
  endfacet
  facet normal -6.081075e-01 7.938441e-01 -4.095582e-03
    outer loop
      vertex 6.360784e+01 -5.998623e+00 7.105427e-15
      vertex 6.303719e+01 -6.306782e+00 2.500000e+01
      vertex 6.485220e+01 -5.045405e+00 7.105427e-15
    endloop
  endfacet
  facet normal 7.938496e-01 6.081117e-01 1.707250e-03
    outer loop
      vertex 5.400138e+01 -3.607841e+00 7.105427e-15
      vertex 5.452718e+01 -4.364429e+00 2.500000e+01
      vertex 5.495460e+01 -4.852204e+00 7.105427e-15
    endloop
  endfacet
  facet normal 8.467230e-01 5.320313e-01 -1.707250e-03
    outer loop
      vertex 5.369322e+01 -3.037186e+00 2.500000e+01
      vertex 5.452718e+01 -4.364429e+00 2.500000e+01
      vertex 5.400138e+01 -3.607841e+00 7.105427e-15
    endloop
  endfacet
  facet normal 5.320276e-01 8.467171e-01 4.095582e-03
    outer loop
      vertex 5.755954e+01 -6.560804e+00 7.105427e-15
      vertex 5.563557e+01 -5.472820e+00 2.500000e+01
      vertex 5.696281e+01 -6.306782e+00 2.500000e+01
    endloop
  endfacet
  facet normal 4.513809e-01 8.923220e-01 -4.095582e-03
    outer loop
      vertex 5.616081e+01 -5.853258e+00 7.105427e-15
      vertex 5.563557e+01 -5.472820e+00 2.500000e+01
      vertex 5.755954e+01 -6.560804e+00 7.105427e-15
    endloop
  endfacet
  facet normal 6.386285e-01 7.695133e-01 1.707250e-03
    outer loop
      vertex 5.495460e+01 -4.852204e+00 7.105427e-15
      vertex 5.563557e+01 -5.472820e+00 2.500000e+01
      vertex 5.616081e+01 -5.853258e+00 7.105427e-15
    endloop
  endfacet
  facet normal 7.071058e-01 7.071058e-01 -1.707250e-03
    outer loop
      vertex 5.452718e+01 -4.364429e+00 2.500000e+01
      vertex 5.563557e+01 -5.472820e+00 2.500000e+01
      vertex 5.495460e+01 -4.852204e+00 7.105427e-15
    endloop
  endfacet
endsolid Default
